<svg width="80" height="80" viewBox="0 0 80 80" fill="none" xmlns="http://www.w3.org/2000/svg">
<g clip-path="url(#clip0)">
<path d="M77.3333 11.3333H69.9013L69.7907 11.2226C68.7493 10.1816 67.0613 10.1816 66.02 11.2226L65.9093 11.3333H21.2427C20.5132 5.76996 15.5983 1.72289 9.99834 2.07438C4.39837 2.42588 0.0281165 7.05574 0 12.6666V62C0 62.012 0.00666667 62.0213 0.00666667 62.0333C0.00666667 62.1293 -0.00266667 62.2226 0.00666667 62.3186C0.326055 68.1685 5.1951 72.7296 11.0533 72.6666H18.0987L22.6507 77.2186C23.692 78.2597 25.38 78.2597 26.4213 77.2186L30.9733 72.6666H77.3333C78.8061 72.6666 80 71.4727 80 70V14C80 12.5272 78.8061 11.3333 77.3333 11.3333ZM77.3333 14V18.7653L72.568 14H77.3333ZM21.3333 14H63.2427L21.3333 55.9093V14ZM2.66667 12.6666C2.66667 8.24837 6.24839 4.66665 10.6667 4.66665C15.0849 4.66665 18.6667 8.24837 18.6667 12.6666V54.9933C16.716 52.7458 13.9121 51.4194 10.9372 51.3371C7.9624 51.2547 5.08938 52.4238 3.01733 54.56C2.89333 54.6933 2.784 54.8266 2.66667 54.96V12.6666ZM11.0533 70C6.63333 70.0725 2.93844 66.6549 2.66667 62.2426C2.5402 58.3441 5.24825 54.9245 9.07203 54.1543C12.8958 53.384 16.7166 55.4885 18.1093 59.132L13.2227 64.02C12.1816 65.0613 12.1816 66.7493 13.2227 67.7906L15.432 70H11.0533ZM24.5333 75.3333L15.1053 65.9053L67.9053 13.1053L77.3333 22.5333L74.5053 25.3613L70.7333 21.6C70.2102 21.0947 69.3786 21.1019 68.8642 21.6162C68.3499 22.1305 68.3427 22.9621 68.848 23.4853L72.62 27.256L70.7333 29.136L68.848 27.2506C68.3248 26.7453 67.4932 26.7526 66.9789 27.2669C66.4646 27.7812 66.4574 28.6128 66.9627 29.136L68.848 31.0213L66.9627 32.9066L63.192 29.136C62.6714 28.615 61.827 28.6147 61.306 29.1353C60.785 29.6559 60.7847 30.5003 61.3053 31.0213L65.0773 34.792L63.1907 36.6786L61.3053 34.8C60.7822 34.2947 59.9506 34.3019 59.4362 34.8162C58.9219 35.3305 58.9147 36.1621 59.42 36.6853L61.3053 38.5706L59.42 40.456L55.648 36.6853C55.3132 36.3387 54.8175 36.1997 54.3513 36.3217C53.8852 36.4437 53.5211 36.8078 53.3991 37.274C53.2771 37.7401 53.4161 38.2359 53.7627 38.5706L57.5347 42.3413L55.648 44.228L53.7627 42.3413C53.4256 42.0045 52.9346 41.8731 52.4744 41.9966C52.0142 42.1201 51.6549 42.4797 51.5317 42.9399C51.4086 43.4002 51.5403 43.8912 51.8773 44.228L53.7627 46.1133L51.8773 47.9986L48.1067 44.2213C47.5835 43.716 46.7519 43.7232 46.2376 44.2376C45.7233 44.7519 45.716 45.5835 46.2213 46.1066L49.992 49.8773L48.1067 51.7626L46.2213 49.8773C45.7007 49.3563 44.8563 49.356 44.3353 49.8766C43.8143 50.3973 43.814 51.2417 44.3347 51.7626L46.2213 53.648L44.3347 55.5346L40.564 51.7626C40.2292 51.416 39.7335 51.277 39.2673 51.399C38.8012 51.5211 38.4371 51.8851 38.3151 52.3513C38.1931 52.8175 38.3321 53.3132 38.6787 53.648L42.4493 57.42L40.564 59.3053L38.6787 57.42C38.1499 56.9547 37.3505 56.9808 36.8533 57.4798C36.3562 57.9787 36.3328 58.7782 36.8 59.3053L38.6853 61.1906L36.7987 63.0773L33.028 59.3053C32.691 58.9685 32.1999 58.8371 31.7397 58.9606C31.2795 59.0841 30.9202 59.4437 30.7971 59.9039C30.6739 60.3642 30.8056 60.8552 31.1427 61.192L34.9133 64.9626L24.5333 75.3333ZM33.6373 70L41.504 62.1333L45.272 58.3653L52.812 50.8253L60.352 43.2853L64.1333 39.508L71.672 31.9693L75.44 28.2013L77.3333 26.3066V70H33.6373Z" fill="white"/>
<path d="M2.66667 12.6666C2.66667 8.24837 6.24839 4.66665 10.6667 4.66665C15.0849 4.66665 18.6667 8.24837 18.6667 12.6666V54.9933C16.716 52.7458 13.9121 51.4194 10.9372 51.3371C7.9624 51.2547 5.08938 52.4238 3.01733 54.56C2.89333 54.6933 2.784 54.8266 2.66667 54.96V12.6666Z" fill="white"/>
<path d="M21.3333 14H63.2427L21.3333 55.9093V14Z" fill="white"/>
<path d="M11.0533 70C6.63333 70.0725 2.93844 66.6549 2.66667 62.2426C2.5402 58.3441 5.24825 54.9245 9.07203 54.1543C12.8958 53.384 16.7166 55.4885 18.1093 59.132L13.2227 64.02C12.1816 65.0613 12.1816 66.7493 13.2227 67.7906L15.432 70H11.0533Z" fill="white"/>
<path d="M24.5333 75.3333L15.1053 65.9053L67.9053 13.1053L77.3333 22.5333L74.5053 25.3613L70.7333 21.6C70.2102 21.0947 69.3786 21.1019 68.8642 21.6162C68.3499 22.1305 68.3427 22.9621 68.848 23.4853L72.62 27.256L70.7333 29.136L68.848 27.2506C68.3248 26.7453 67.4932 26.7526 66.9789 27.2669C66.4646 27.7812 66.4574 28.6128 66.9627 29.136L68.848 31.0213L66.9627 32.9066L63.192 29.136C62.6714 28.615 61.827 28.6147 61.306 29.1353C60.785 29.6559 60.7847 30.5003 61.3053 31.0213L65.0773 34.792L63.1907 36.6786L61.3053 34.8C60.7822 34.2947 59.9506 34.3019 59.4362 34.8162C58.9219 35.3305 58.9147 36.1621 59.42 36.6853L61.3053 38.5706L59.42 40.456L55.648 36.6853C55.3132 36.3387 54.8175 36.1997 54.3513 36.3217C53.8852 36.4437 53.5211 36.8078 53.3991 37.274C53.2771 37.7401 53.4161 38.2359 53.7627 38.5706L57.5347 42.3413L55.648 44.228L53.7627 42.3413C53.4256 42.0045 52.9346 41.8731 52.4744 41.9966C52.0142 42.1201 51.6549 42.4797 51.5317 42.9399C51.4086 43.4002 51.5403 43.8912 51.8773 44.228L53.7627 46.1133L51.8773 47.9986L48.1067 44.2213C47.5835 43.716 46.7519 43.7232 46.2376 44.2376C45.7233 44.7519 45.716 45.5835 46.2213 46.1066L49.992 49.8773L48.1067 51.7626L46.2213 49.8773C45.7007 49.3563 44.8563 49.356 44.3353 49.8766C43.8143 50.3973 43.814 51.2417 44.3347 51.7626L46.2213 53.648L44.3347 55.5346L40.564 51.7626C40.2292 51.416 39.7335 51.277 39.2673 51.399C38.8012 51.5211 38.4371 51.8851 38.3151 52.3513C38.1931 52.8175 38.3321 53.3132 38.6787 53.648L42.4493 57.42L40.564 59.3053L38.6787 57.42C38.1499 56.9547 37.3505 56.9808 36.8533 57.4798C36.3562 57.9787 36.3328 58.7782 36.8 59.3053L38.6853 61.1906L36.7987 63.0773L33.028 59.3053C32.691 58.9685 32.1999 58.8371 31.7397 58.9606C31.2795 59.0841 30.9202 59.4437 30.7971 59.9039C30.6739 60.3642 30.8056 60.8552 31.1427 61.192L34.9133 64.9626L24.5333 75.3333Z" fill="white"/>
<path d="M33.6373 70L41.504 62.1333L45.272 58.3653L52.812 50.8253L60.352 43.2853L64.1333 39.508L71.672 31.9693L75.44 28.2013L77.3333 26.3066V70H33.6373Z" fill="white"/>
<path d="M77.3333 11.3333H69.9013L69.7907 11.2226C68.7493 10.1816 67.0613 10.1816 66.02 11.2226L65.9093 11.3333H21.2427C20.5132 5.76996 15.5983 1.72289 9.99834 2.07438C4.39837 2.42588 0.0281165 7.05574 0 12.6666V62C0 62.012 0.00666667 62.0213 0.00666667 62.0333C0.00666667 62.1293 -0.00266667 62.2226 0.00666667 62.3186C0.326055 68.1685 5.1951 72.7296 11.0533 72.6666H18.0987L22.6507 77.2186C23.692 78.2597 25.38 78.2597 26.4213 77.2186L30.9733 72.6666H77.3333C78.8061 72.6666 80 71.4727 80 70V14C80 12.5272 78.8061 11.3333 77.3333 11.3333ZM77.3333 14V18.7653L72.568 14H77.3333ZM21.3333 14H63.2427L21.3333 55.9093V14ZM2.66667 12.6666C2.66667 8.24837 6.24839 4.66665 10.6667 4.66665C15.0849 4.66665 18.6667 8.24837 18.6667 12.6666V54.9933C16.716 52.7458 13.9121 51.4194 10.9372 51.3371C7.9624 51.2547 5.08938 52.4238 3.01733 54.56C2.89333 54.6933 2.784 54.8266 2.66667 54.96V12.6666ZM11.0533 70C6.63333 70.0725 2.93844 66.6549 2.66667 62.2426C2.5402 58.3441 5.24825 54.9245 9.07203 54.1543C12.8958 53.384 16.7166 55.4885 18.1093 59.132L13.2227 64.02C12.1816 65.0613 12.1816 66.7493 13.2227 67.7906L15.432 70H11.0533ZM24.5333 75.3333L15.1053 65.9053L67.9053 13.1053L77.3333 22.5333L74.5053 25.3613L70.7333 21.6C70.2102 21.0947 69.3786 21.1019 68.8642 21.6162C68.3499 22.1305 68.3427 22.9621 68.848 23.4853L72.62 27.256L70.7333 29.136L68.848 27.2506C68.3248 26.7454 67.4932 26.7526 66.9789 27.2669C66.4646 27.7812 66.4574 28.6128 66.9627 29.136L68.848 31.0213L66.9627 32.9066L63.192 29.136C62.6714 28.615 61.827 28.6147 61.306 29.1353C60.785 29.6559 60.7847 30.5003 61.3053 31.0213L65.0773 34.792L63.1907 36.6786L61.3053 34.8C60.7822 34.2947 59.9506 34.3019 59.4362 34.8162C58.9219 35.3305 58.9147 36.1621 59.42 36.6853L61.3053 38.5706L59.42 40.456L55.648 36.6853C55.3132 36.3387 54.8175 36.1997 54.3513 36.3217C53.8852 36.4437 53.5211 36.8078 53.3991 37.274C53.2771 37.7401 53.4161 38.2359 53.7627 38.5706L57.5347 42.3413L55.648 44.228L53.7627 42.3413C53.4256 42.0045 52.9346 41.8731 52.4744 41.9966C52.0142 42.1201 51.6549 42.4797 51.5317 42.9399C51.4086 43.4002 51.5403 43.8912 51.8773 44.228L53.7627 46.1133L51.8773 47.9986L48.1067 44.2213C47.5835 43.716 46.7519 43.7232 46.2376 44.2376C45.7233 44.7519 45.716 45.5835 46.2213 46.1066L49.992 49.8773L48.1067 51.7626L46.2213 49.8773C45.7007 49.3563 44.8563 49.356 44.3353 49.8766C43.8143 50.3973 43.814 51.2417 44.3347 51.7626L46.2213 53.648L44.3347 55.5346L40.564 51.7626C40.2292 51.416 39.7335 51.277 39.2673 51.399C38.8012 51.5211 38.4371 51.8851 38.3151 52.3513C38.1931 52.8175 38.3321 53.3132 38.6787 53.648L42.4493 57.42L40.564 59.3053L38.6787 57.42C38.1499 56.9547 37.3505 56.9808 36.8533 57.4798C36.3562 57.9787 36.3328 58.7782 36.8 59.3053L38.6853 61.1906L36.7987 63.0773L33.028 59.3053C32.691 58.9685 32.1999 58.8371 31.7397 58.9606C31.2795 59.0841 30.9202 59.4437 30.7971 59.9039C30.6739 60.3642 30.8056 60.8552 31.1427 61.192L34.9133 64.9626L24.5333 75.3333ZM33.6373 70L41.504 62.1333L45.272 58.3653L52.812 50.8253L60.352 43.2853L64.1333 39.508L71.672 31.9693L75.44 28.2013L77.3333 26.3066V70H33.6373Z" fill="#333333"/>
<path d="M6.66634 15.3333C7.40272 15.3333 7.99968 14.7364 7.99968 14V12.6667C7.99968 11.9303 7.40272 11.3333 6.66634 11.3333C5.92996 11.3333 5.33301 11.9303 5.33301 12.6667V14C5.33301 14.7364 5.92996 15.3333 6.66634 15.3333Z" fill="#333333"/>
<path d="M6.66634 40.6666C7.40272 40.6666 7.99968 40.0697 7.99968 39.3333V19.3333C7.99968 18.5969 7.40272 18 6.66634 18C5.92996 18 5.33301 18.5969 5.33301 19.3333V39.3333C5.33301 40.0697 5.92996 40.6666 6.66634 40.6666Z" fill="#333333"/>
<path d="M73.3337 35.3333C72.5973 35.3333 72.0003 35.9303 72.0003 36.6666V40.6666H68.0003C67.2639 40.6666 66.667 41.2636 66.667 42C66.667 42.7364 67.2639 43.3333 68.0003 43.3333H72.0003V48.6667H66.667V44.6666C66.667 43.9303 66.07 43.3333 65.3337 43.3333C64.5973 43.3333 64.0003 43.9303 64.0003 44.6666V48.6667H60.0003C59.2639 48.6667 58.667 49.2636 58.667 50C58.667 50.7364 59.2639 51.3333 60.0003 51.3333H64.0003V56.6667H58.667V52.6667C58.667 51.9303 58.07 51.3333 57.3337 51.3333C56.5973 51.3333 56.0003 51.9303 56.0003 52.6667V56.6667H52.0003C51.2639 56.6667 50.667 57.2636 50.667 58C50.667 58.7364 51.2639 59.3333 52.0003 59.3333H56.0003V64.6667H50.667V60.6667C50.667 59.9303 50.07 59.3333 49.3337 59.3333C48.5973 59.3333 48.0003 59.9303 48.0003 60.6667V64.6667H44.0003C43.2639 64.6667 42.667 65.2636 42.667 66C42.667 66.7364 43.2639 67.3333 44.0003 67.3333H72.0003C73.4731 67.3333 74.667 66.1394 74.667 64.6667V36.6666C74.667 35.9303 74.07 35.3333 73.3337 35.3333ZM66.667 51.3333H72.0003V56.6667H66.667V51.3333ZM58.667 64.6667V59.3333H64.0003V64.6667H58.667ZM66.667 64.6667V59.3333H72.0003V64.6667H66.667Z" fill="#333333"/>
<path d="M53.5867 16.6666H26.6667C25.1939 16.6666 24 17.8605 24 19.3333V46.2533C24 46.9897 24.597 47.5866 25.3333 47.5866C26.0697 47.5866 26.6667 46.9897 26.6667 46.2533V43.3333H29.5867C30.323 43.3333 30.92 42.7363 30.92 42C30.92 41.2636 30.323 40.6666 29.5867 40.6666H26.6667V35.3333H32V38.2533C32 38.9897 32.597 39.5866 33.3333 39.5866C34.0697 39.5866 34.6667 38.9897 34.6667 38.2533V35.3333H37.5867C38.323 35.3333 38.92 34.7363 38.92 34C38.92 33.2636 38.323 32.6666 37.5867 32.6666H34.6667V27.3333H40V30.2533C40 30.9897 40.597 31.5866 41.3333 31.5866C42.0697 31.5866 42.6667 30.9897 42.6667 30.2533V27.3333H45.5867C46.323 27.3333 46.92 26.7363 46.92 26C46.92 25.2636 46.323 24.6666 45.5867 24.6666H42.6667V19.3333H48V22.2533C48 22.9897 48.597 23.5866 49.3333 23.5866C50.0697 23.5866 50.6667 22.9897 50.6667 22.2533V19.3333H53.5867C54.3231 19.3333 54.92 18.7363 54.92 18C54.92 17.2636 54.3231 16.6666 53.5867 16.6666ZM32 19.3333V24.6666H26.6667V19.3333H32ZM32 32.6666H26.6667V27.3333H32V32.6666ZM40 24.6666H34.6667V19.3333H40V24.6666Z" fill="#333333"/>
<path d="M27.3633 63.076C25.8012 61.5141 23.2686 61.5142 21.7066 63.0763C20.1447 64.6384 20.1447 67.1709 21.7066 68.733C23.2686 70.2951 25.8012 70.2952 27.3633 68.7333C28.1136 67.9832 28.5352 66.9657 28.5352 65.9047C28.5352 64.8437 28.1136 63.8262 27.3633 63.076ZM25.478 66.848C25.0967 67.2294 24.5232 67.3436 24.0249 67.1372C23.5266 66.9309 23.2017 66.4447 23.2017 65.9053C23.2017 65.366 23.5266 64.8798 24.0249 64.6735C24.5232 64.4671 25.0967 64.5813 25.478 64.9627C25.9985 65.4833 25.9985 66.3273 25.478 66.848Z" fill="#333333"/>
</g>
<defs>
<clipPath id="clip0">
<rect width="80" height="80" fill="white"/>
</clipPath>
</defs>
</svg>
