<svg width="80" height="80" viewBox="0 0 80 80" fill="none" xmlns="http://www.w3.org/2000/svg">
<g clip-path="url(#clip0)">
<path d="M74.8656 19.8293C73.4202 17.515 71.0926 15.891 68.4216 15.3333C64.5776 14.3013 59.5256 14.492 53.8696 15.7333C50.7322 6.11733 45.7336 0 40.0002 0C34.2669 0 29.2669 6.11733 26.1336 15.7333C20.4789 14.492 15.4269 14.3027 11.5829 15.3333C8.91255 15.89 6.58508 17.5125 5.1389 19.8253C2.2349 24.8627 5.09623 32.3667 11.9842 40C5.09623 47.6333 2.2349 55.1373 5.1349 60.1707C6.58028 62.485 8.90786 64.109 11.5789 64.6667C13.4353 65.1346 15.3446 65.3587 17.2589 65.3333C20.2463 65.2954 23.221 64.9378 26.1322 64.2667C29.2696 73.8853 34.2669 80 40.0002 80C45.7336 80 50.7309 73.8853 53.8669 64.2667C56.7782 64.9373 59.7529 65.2949 62.7402 65.3333C64.6545 65.3586 66.5639 65.1345 68.4202 64.6667C71.0906 64.11 73.418 62.4875 74.8642 60.1747C77.7642 55.1413 74.9029 47.6413 68.0149 40.004C74.9042 32.3667 77.7656 24.8627 74.8656 19.8293ZM67.7336 17.9133C69.7137 18.2996 71.4533 19.4707 72.5562 21.16C74.8229 25.0893 72.1202 31.4267 66.1562 38.0453C63.2634 35.1526 60.1397 32.5002 56.8162 30.1147C56.4089 26.1277 55.6799 22.1801 54.6362 18.3107C59.7909 17.2 64.3509 17.008 67.7336 17.9133ZM47.3856 52.8253C44.9402 54.24 42.4629 55.52 40.0002 56.6533C37.5376 55.52 35.0669 54.24 32.6149 52.8253C30.1949 51.4253 27.8962 49.9427 25.7309 48.412C25.4736 45.6973 25.3336 42.8827 25.3336 40C25.3336 37.1173 25.4736 34.3027 25.7336 31.588C27.8989 30.0573 30.1976 28.5747 32.6176 27.1747C35.0589 25.76 37.5336 24.4827 40.0002 23.3493C42.4656 24.484 44.9442 25.7587 47.3922 27.1747C49.8122 28.5747 52.1109 30.0573 54.2762 31.588C54.5336 34.3027 54.6762 37.1173 54.6762 40C54.6762 42.8827 54.5429 45.6973 54.2762 48.412C52.1042 49.9427 49.8056 51.4253 47.3856 52.8253ZM53.8616 51.9427C53.8614 51.944 53.8612 51.9453 53.861 51.9466C53.4472 55.0197 52.8337 58.0626 52.0242 61.056C49.0374 60.2461 46.1056 59.2454 43.2469 58.06C45.0718 57.1569 46.8967 56.1818 48.7216 55.1347C50.5026 54.1039 52.2157 53.0412 53.861 51.9466C53.863 51.9453 53.8649 51.944 53.8669 51.9427H53.8616ZM36.7549 58.06C33.8957 59.2452 30.9635 60.2459 27.9762 61.056C27.1647 58.0615 26.5491 55.0173 26.1336 51.9427C27.7762 53.0351 29.4896 54.0991 31.2736 55.1347C33.0976 56.1871 34.9247 57.1622 36.7549 58.06ZM22.8736 46.3013C20.3433 44.3613 17.9438 42.2562 15.6909 40C17.9438 37.7438 20.3433 35.6387 22.8736 33.6987C22.7358 35.7467 22.6669 37.8471 22.6669 40C22.6669 42.1529 22.7358 44.2533 22.8736 46.3013ZM31.2736 24.8653C29.4949 25.8973 27.7816 26.9613 26.1336 28.0573C26.5475 24.9838 27.1612 21.9404 27.9709 18.9467C30.9576 19.7544 33.8894 20.7529 36.7482 21.936C34.9269 22.8373 33.1038 23.8138 31.2789 24.8653H31.2736ZM43.2456 21.932C46.1028 20.7479 49.0327 19.7476 52.0176 18.9373C52.8321 21.9338 53.4499 24.9803 53.8669 28.0573C52.2242 26.9658 50.5109 25.9018 48.7269 24.8653C46.9091 23.8138 45.0838 22.8378 43.2509 21.9373L43.2456 21.932ZM57.1216 33.6933C59.6539 35.6349 62.0551 37.7417 64.3096 40C62.0566 42.2562 59.6572 44.3613 57.1269 46.3013C57.2647 44.2533 57.3336 42.1529 57.3336 40C57.3336 37.8471 57.2647 35.7467 57.1269 33.6987L57.1216 33.6933ZM40.0002 2.66667C44.4656 2.66667 48.5416 8.06133 51.2576 16.376C47.4051 17.4267 43.641 18.7784 40.0002 20.4187C36.359 18.7796 32.595 17.4279 28.7429 16.376C31.4589 8.06133 35.5349 2.66667 40.0002 2.66667ZM7.44556 21.16C8.54817 19.471 10.2872 18.2999 12.2669 17.9133C13.8872 17.5059 15.5536 17.3109 17.2242 17.3333C19.962 17.372 22.6882 17.6987 25.3576 18.308C24.3139 22.1775 23.5849 26.125 23.1776 30.112C19.8564 32.4979 16.7349 35.1502 13.8442 38.0427C7.88156 31.4307 5.18156 25.0893 7.44556 21.16ZM12.2669 62.0867C10.2872 61.7001 8.54817 60.529 7.44556 58.84C5.1789 54.9107 7.88156 48.5733 13.8456 41.9547C16.7363 44.8472 19.8577 47.4995 23.1789 49.8853C23.5862 53.8723 24.3153 57.8199 25.3589 61.6893C20.2096 62.8 15.6482 62.992 12.2669 62.0867ZM40.0002 77.3333C35.5349 77.3333 31.4589 71.9387 28.7429 63.624C32.5951 62.5756 36.3591 61.2266 40.0002 59.5893C43.6415 61.2266 47.4055 62.576 51.2576 63.6253C48.5416 71.9387 44.4656 77.3333 40.0002 77.3333ZM72.5549 58.84C71.4523 60.529 69.7132 61.7001 67.7336 62.0867C64.3536 62.992 59.7922 62.8053 54.6402 61.6867C55.6839 57.8172 56.4129 53.8697 56.8202 49.8827C60.1437 47.4971 63.2674 44.8448 66.1602 41.952C72.1189 48.5693 74.8189 54.9107 72.5549 58.84Z" fill="white"/>
<path d="M12.2669 62.0867C10.2872 61.7001 8.54817 60.529 7.44556 58.84C5.1789 54.9107 7.88156 48.5733 13.8456 41.9547C16.7363 44.8472 19.8577 47.4995 23.1789 49.8853C23.5862 53.8723 24.3153 57.8199 25.3589 61.6893C20.2096 62.8 15.6482 62.992 12.2669 62.0867Z" fill="white"/>
<path d="M36.7549 58.06C33.8957 59.2452 30.9635 60.2459 27.9762 61.056C27.1647 58.0615 26.5491 55.0173 26.1336 51.9427C27.7762 53.0351 29.4896 54.0991 31.2736 55.1347C33.0976 56.1871 34.9247 57.1622 36.7549 58.06Z" fill="white"/>
<path d="M47.3856 52.8253C44.9402 54.24 42.4629 55.52 40.0002 56.6533C37.5376 55.52 35.0669 54.24 32.6149 52.8253C30.1949 51.4253 27.8962 49.9427 25.7309 48.412C25.4736 45.6973 25.3336 42.8827 25.3336 40C25.3336 37.1173 25.4736 34.3027 25.7336 31.588C27.8989 30.0573 30.1976 28.5747 32.6176 27.1747C35.0589 25.76 37.5336 24.4827 40.0002 23.3493C42.4656 24.484 44.9442 25.7587 47.3922 27.1747C49.8122 28.5747 52.1109 30.0573 54.2762 31.588C54.5336 34.3027 54.6762 37.1173 54.6762 40C54.6762 42.8827 54.5429 45.6973 54.2762 48.412C52.1042 49.9427 49.8056 51.4253 47.3856 52.8253Z" fill="white"/>
<path d="M52.0242 61.056C52.8337 58.0626 53.4472 55.0197 53.861 51.9466C52.2157 53.0412 50.5026 54.1039 48.7216 55.1347C46.8967 56.1818 45.0718 57.1569 43.2469 58.06C46.1056 59.2454 49.0374 60.2461 52.0242 61.056Z" fill="white"/>
<path d="M72.5549 58.84C71.4523 60.529 69.7132 61.7001 67.7336 62.0867C64.3536 62.992 59.7922 62.8053 54.6402 61.6867C55.6839 57.8172 56.4129 53.8697 56.8202 49.8827C60.1437 47.4971 63.2674 44.8448 66.1602 41.952C72.1189 48.5693 74.8189 54.9107 72.5549 58.84Z" fill="white"/>
<path d="M57.1216 33.6933C59.6539 35.6349 62.0551 37.7417 64.3096 40C62.0566 42.2562 59.6572 44.3613 57.1269 46.3013C57.2647 44.2533 57.3336 42.1529 57.3336 40C57.3336 37.8471 57.2647 35.7467 57.1269 33.6987L57.1216 33.6933Z" fill="white"/>
<path d="M67.7336 17.9133C69.7137 18.2996 71.4533 19.4707 72.5562 21.16C74.8229 25.0893 72.1202 31.4267 66.1562 38.0453C63.2634 35.1526 60.1397 32.5002 56.8162 30.1147C56.4089 26.1277 55.6799 22.1801 54.6362 18.3107C59.7909 17.2 64.3509 17.008 67.7336 17.9133Z" fill="white"/>
<path d="M43.2456 21.932C46.1028 20.7479 49.0327 19.7476 52.0176 18.9373C52.8321 21.9338 53.4499 24.9803 53.8669 28.0573C52.2242 26.9658 50.5109 25.9018 48.7269 24.8653C46.9091 23.8138 45.0838 22.8378 43.2509 21.9373L43.2456 21.932Z" fill="white"/>
<path d="M40.0002 2.66667C44.4656 2.66667 48.5416 8.06133 51.2576 16.376C47.4051 17.4267 43.641 18.7784 40.0002 20.4187C36.359 18.7796 32.595 17.4279 28.7429 16.376C31.4589 8.06133 35.5349 2.66667 40.0002 2.66667Z" fill="white"/>
<path d="M31.2736 24.8653C29.4949 25.8973 27.7816 26.9613 26.1336 28.0573C26.5475 24.9838 27.1612 21.9404 27.9709 18.9467C30.9576 19.7544 33.8894 20.7529 36.7482 21.936C34.9269 22.8373 33.1038 23.8138 31.2789 24.8653H31.2736Z" fill="white"/>
<path d="M7.44556 21.16C8.54817 19.471 10.2872 18.2999 12.2669 17.9133C13.8872 17.5059 15.5536 17.3109 17.2242 17.3333C19.962 17.372 22.6882 17.6987 25.3576 18.308C24.3139 22.1775 23.5849 26.125 23.1776 30.112C19.8564 32.4979 16.7349 35.1502 13.8442 38.0427C7.88156 31.4307 5.18156 25.0893 7.44556 21.16Z" fill="white"/>
<path d="M22.8736 46.3013C20.3433 44.3613 17.9438 42.2562 15.6909 40C17.9438 37.7438 20.3433 35.6387 22.8736 33.6987C22.7358 35.7467 22.6669 37.8471 22.6669 40C22.6669 42.1529 22.7358 44.2533 22.8736 46.3013Z" fill="white"/>
<path d="M74.8656 19.8293C73.4202 17.515 71.0926 15.891 68.4216 15.3333C64.5776 14.3013 59.5256 14.492 53.8696 15.7333C50.7322 6.11733 45.7336 0 40.0002 0C34.2669 0 29.2669 6.11733 26.1336 15.7333C20.4789 14.492 15.4269 14.3027 11.5829 15.3333C8.91255 15.89 6.58508 17.5125 5.1389 19.8253C2.2349 24.8627 5.09623 32.3667 11.9842 40C5.09623 47.6333 2.2349 55.1373 5.1349 60.1707C6.58028 62.485 8.90786 64.109 11.5789 64.6667C13.4353 65.1346 15.3446 65.3587 17.2589 65.3333C20.2463 65.2954 23.221 64.9378 26.1322 64.2667C29.2696 73.8853 34.2669 80 40.0002 80C45.7336 80 50.7309 73.8853 53.8669 64.2667C56.7782 64.9373 59.7529 65.2949 62.7402 65.3333C64.6545 65.3586 66.5639 65.1345 68.4202 64.6667C71.0906 64.11 73.418 62.4875 74.8642 60.1747C77.7642 55.1413 74.9029 47.6413 68.0149 40.004C74.9042 32.3667 77.7656 24.8627 74.8656 19.8293ZM67.7336 17.9133C69.7137 18.2996 71.4533 19.4707 72.5562 21.16C74.8229 25.0893 72.1202 31.4267 66.1562 38.0453C63.2634 35.1526 60.1397 32.5002 56.8162 30.1147C56.4089 26.1277 55.6799 22.1801 54.6362 18.3107C59.7909 17.2 64.3509 17.008 67.7336 17.9133ZM47.3856 52.8253C44.9402 54.24 42.4629 55.52 40.0002 56.6533C37.5376 55.52 35.0669 54.24 32.6149 52.8253C30.1949 51.4253 27.8962 49.9427 25.7309 48.412C25.4736 45.6973 25.3336 42.8827 25.3336 40C25.3336 37.1173 25.4736 34.3027 25.7336 31.588C27.8989 30.0573 30.1976 28.5747 32.6176 27.1747C35.0589 25.76 37.5336 24.4827 40.0002 23.3493C42.4656 24.484 44.9442 25.7587 47.3922 27.1747C49.8122 28.5747 52.1109 30.0573 54.2762 31.588C54.5336 34.3027 54.6762 37.1173 54.6762 40C54.6762 42.8827 54.5429 45.6973 54.2762 48.412C52.1042 49.9427 49.8056 51.4253 47.3856 52.8253ZM53.8616 51.9427C53.4478 55.0171 52.834 58.0614 52.0242 61.056C49.0374 60.2461 46.1056 59.2454 43.2469 58.06C45.0718 57.1569 46.8967 56.1818 48.7216 55.1347C50.5047 54.1027 52.2198 53.0387 53.8669 51.9427H53.8616ZM36.7549 58.06C33.8957 59.2452 30.9635 60.2459 27.9762 61.056C27.1647 58.0615 26.5491 55.0173 26.1336 51.9427C27.7762 53.0351 29.4896 54.0991 31.2736 55.1347C33.0976 56.1871 34.9247 57.1622 36.7549 58.06ZM22.8736 46.3013C20.3433 44.3613 17.9438 42.2562 15.6909 40C17.9438 37.7438 20.3433 35.6387 22.8736 33.6987C22.7358 35.7467 22.6669 37.8471 22.6669 40C22.6669 42.1529 22.7358 44.2533 22.8736 46.3013ZM31.2736 24.8653C29.4949 25.8973 27.7816 26.9613 26.1336 28.0573C26.5475 24.9838 27.1612 21.9404 27.9709 18.9467C30.9576 19.7544 33.8894 20.7529 36.7482 21.936C34.9269 22.8373 33.1038 23.8138 31.2789 24.8653H31.2736ZM43.2456 21.932C46.1028 20.7479 49.0327 19.7476 52.0176 18.9373C52.8321 21.9338 53.4499 24.9803 53.8669 28.0573C52.2242 26.9658 50.5109 25.9018 48.7269 24.8653C46.9091 23.8138 45.0838 22.8378 43.2509 21.9373L43.2456 21.932ZM57.1216 33.6933C59.6539 35.6349 62.0551 37.7417 64.3096 40C62.0566 42.2562 59.6572 44.3613 57.1269 46.3013C57.2647 44.2533 57.3336 42.1529 57.3336 40C57.3336 37.8471 57.2647 35.7467 57.1269 33.6987L57.1216 33.6933ZM40.0002 2.66667C44.4656 2.66667 48.5416 8.06133 51.2576 16.376C47.4051 17.4267 43.641 18.7784 40.0002 20.4187C36.359 18.7796 32.595 17.4279 28.7429 16.376C31.4589 8.06133 35.5349 2.66667 40.0002 2.66667ZM7.44556 21.16C8.54817 19.471 10.2872 18.2999 12.2669 17.9133C13.8872 17.5059 15.5536 17.3109 17.2242 17.3333C19.962 17.372 22.6882 17.6987 25.3576 18.308C24.3139 22.1775 23.5849 26.125 23.1776 30.112C19.8564 32.4979 16.7349 35.1502 13.8442 38.0427C7.88156 31.4307 5.18156 25.0893 7.44556 21.16ZM12.2669 62.0867C10.2872 61.7001 8.54817 60.529 7.44556 58.84C5.1789 54.9107 7.88156 48.5733 13.8456 41.9547C16.7363 44.8472 19.8577 47.4995 23.1789 49.8853C23.5862 53.8723 24.3153 57.8199 25.3589 61.6893C20.2096 62.8 15.6482 62.992 12.2669 62.0867ZM40.0002 77.3333C35.5349 77.3333 31.4589 71.9387 28.7429 63.624C32.5951 62.5756 36.3591 61.2266 40.0002 59.5893C43.6415 61.2266 47.4055 62.576 51.2576 63.6253C48.5416 71.9387 44.4656 77.3333 40.0002 77.3333ZM72.5549 58.84C71.4523 60.529 69.7132 61.7001 67.7336 62.0867C64.3536 62.992 59.7922 62.8053 54.6402 61.6867C55.6839 57.8172 56.4129 53.8697 56.8202 49.8827C60.1437 47.4971 63.2674 44.8448 66.1602 41.952C72.1189 48.5693 74.8189 54.9107 72.5549 58.84Z" fill="#333333"/>
<path d="M39.9993 30.6667C34.8447 30.6667 30.666 34.8454 30.666 40C30.666 45.1547 34.8447 49.3334 39.9993 49.3334C45.154 49.3334 49.3327 45.1547 49.3327 40C49.3327 34.8454 45.154 30.6667 39.9993 30.6667ZM39.9993 37.3334C38.5266 37.3334 37.3327 38.5273 37.3327 40C37.3327 40.7364 36.7357 41.3334 35.9993 41.3334C35.263 41.3334 34.666 40.7364 34.666 40C34.666 37.0545 37.0538 34.6667 39.9993 34.6667C40.7357 34.6667 41.3327 35.2636 41.3327 36C41.3327 36.7364 40.7357 37.3334 39.9993 37.3334Z" fill="#333333"/>
<path d="M39.9997 13.3333C41.4724 13.3333 42.6663 12.1394 42.6663 10.6667C42.6663 9.19391 41.4724 8 39.9997 8C38.5269 8 37.333 9.19391 37.333 10.6667C37.333 12.1394 38.5269 13.3333 39.9997 13.3333Z" fill="#333333"/>
<path d="M3.99967 42.6667C5.47243 42.6667 6.66634 41.4728 6.66634 40C6.66634 38.5273 5.47243 37.3333 3.99967 37.3333C2.52692 37.3333 1.33301 38.5273 1.33301 40C1.33301 41.4728 2.52692 42.6667 3.99967 42.6667Z" fill="#333333"/>
<path d="M75.9997 42.6667C77.4724 42.6667 78.6664 41.4728 78.6664 40C78.6664 38.5273 77.4724 37.3333 75.9997 37.3333C74.5269 37.3333 73.333 38.5273 73.333 40C73.333 41.4728 74.5269 42.6667 75.9997 42.6667Z" fill="#333333"/>
<path d="M14.6667 57.3333C16.1394 57.3333 17.3333 56.1394 17.3333 54.6667C17.3333 53.1939 16.1394 52 14.6667 52C13.1939 52 12 53.1939 12 54.6667C12 56.1394 13.1939 57.3333 14.6667 57.3333Z" fill="#333333"/>
</g>
<defs>
<clipPath id="clip0">
<rect width="80" height="80" fill="white"/>
</clipPath>
</defs>
</svg>
