<svg width="84" height="84" viewBox="0 0 84 84" fill="none" xmlns="http://www.w3.org/2000/svg">
<rect x="9.5" y="9.5" width="65" height="65" stroke="#4195DF" stroke-width="3"/>
<path d="M32.5132 72.2702C32.9617 72.267 33.4086 72.3221 33.8428 72.4342C35.608 73.1588 37.1393 74.3559 38.2686 75.894C39.5391 77.2984 40.8542 78.75 42 78.75C43.1458 78.75 44.4609 77.2984 45.7314 75.894C46.8607 74.3559 48.392 73.1588 50.1572 72.4342C52.1025 72.1656 54.0843 72.4381 55.8849 73.2217C57.6411 73.7822 59.4589 74.361 60.3776 73.8307C61.3266 73.2821 61.7347 71.3947 62.1272 69.5704L62.1293 69.5606C62.5565 67.5883 62.9982 65.5494 64.2731 64.2744C65.8073 63.0846 67.6406 62.3419 69.5704 62.1285L69.5735 62.1278C71.3969 61.7343 73.2824 61.3273 73.8307 60.3789C74.3558 59.4602 73.7822 57.6424 73.2217 55.8849C72.4375 54.0844 72.165 52.1025 72.4342 50.1572C73.1588 48.392 74.3559 46.8607 75.894 45.7314C77.2984 44.4609 78.75 43.1458 78.75 42C78.75 40.8542 77.2984 39.5391 75.894 38.2686C74.3559 37.1393 73.1588 35.608 72.4342 33.8428C72.165 31.8975 72.4375 29.9156 73.2217 28.1151L73.2244 28.1067C73.784 26.3532 74.3628 24.5397 73.8307 23.6224C73.2821 22.6734 71.3947 22.2653 69.5704 21.8728C67.5938 21.4449 65.5515 21 64.2744 19.7269C63.0846 18.1927 62.3419 16.3594 62.1285 14.4296L62.1278 14.4265C61.7343 12.6031 61.3273 10.7176 60.3789 10.1693C59.4616 9.63851 57.6493 10.216 55.8931 10.7756L55.8849 10.7782C54.0844 11.5625 52.1025 11.835 50.1572 11.5658C48.392 10.8412 46.8607 9.64409 45.7314 8.106C44.4609 6.70162 43.1458 5.25 42 5.25C40.8542 5.25 39.5391 6.70162 38.2686 8.106C37.1393 9.64409 35.608 10.8412 33.8428 11.5658C31.8975 11.8345 29.9157 11.562 28.1151 10.7782L28.1046 10.7749C26.3504 10.2142 24.5419 9.63612 23.625 10.1693C22.6761 10.7179 22.2679 12.6053 21.8754 14.4296C21.4449 16.4063 21 18.4485 19.7269 19.7256C18.1927 20.9154 16.3594 21.6581 14.4296 21.8715L14.4265 21.8722C12.6031 22.2657 10.7176 22.6727 10.1693 23.6211C9.63797 24.5393 10.2172 26.3557 10.7774 28.1123L10.7782 28.1151C11.5625 29.9156 11.835 31.8975 11.5658 33.8428C10.8412 35.608 9.64409 37.1393 8.106 38.2686C6.70162 39.5391 5.25 40.8542 5.25 42C5.25 43.1458 6.70162 44.4609 8.106 45.7314C9.64409 46.8607 10.8412 48.392 11.5658 50.1572C11.835 52.1025 11.5625 54.0844 10.7782 55.8849L10.7739 55.8986C10.2148 57.6505 9.63776 59.4586 10.1693 60.375C10.7179 61.3239 12.6053 61.7321 14.4296 62.1246L14.4394 62.1267C16.4117 62.5539 18.4506 62.9955 19.7256 64.2705C20.9154 65.8047 21.6581 67.638 21.8715 69.5677L21.8722 69.5709C22.2657 71.3943 22.6727 73.2798 23.6211 73.8281C24.5398 74.3623 26.3589 73.7809 28.1151 73.2191C29.5257 72.6856 31.0081 72.3657 32.5132 72.2702Z" fill="white"/>
<path d="M42 81.375C39.69 81.375 37.9785 79.485 36.3221 77.6554C35.4935 76.5264 34.412 75.6071 33.1642 74.9713C31.7077 74.88 30.2503 75.1374 28.9131 75.7221C26.6109 76.4571 24.2314 77.217 22.3073 76.1027C20.3516 74.9726 19.8201 72.5078 19.3056 70.1243C19.1474 68.6982 18.6555 67.3295 17.8697 66.129C16.6696 65.3437 15.3013 64.8522 13.8757 64.6944C11.4922 64.1813 9.02738 63.6471 7.89731 61.6875C6.783 59.7634 7.54294 57.3825 8.27794 55.0804C8.86145 53.7433 9.11877 52.2866 9.02869 50.8305C8.39287 49.5827 7.47363 48.5012 6.34463 47.6726C4.515 46.0215 2.625 44.31 2.625 42C2.625 39.69 4.515 37.9785 6.34463 36.3221C7.47363 35.4935 8.39287 34.412 9.02869 33.1642C9.11868 31.7077 8.86136 30.2507 8.27794 28.9131C7.54294 26.6122 6.783 24.2314 7.89731 22.3073C9.02738 20.3516 11.4922 19.8201 13.8757 19.3056C15.3018 19.1474 16.6705 18.6555 17.871 17.8697C18.6563 16.6696 19.1478 15.3013 19.3056 13.8757C19.8214 11.4922 20.3556 9.02738 22.3073 7.89731C24.2327 6.783 26.6123 7.54425 28.9144 8.27794C30.2516 8.86091 31.7082 9.11821 33.1642 9.02869C34.412 8.39287 35.4935 7.47363 36.3221 6.34463C37.9785 4.515 39.69 2.625 42 2.625C44.31 2.625 46.0215 4.515 47.6779 6.34463C48.5065 7.47363 49.588 8.39287 50.8357 9.02869C52.2923 9.11868 53.7493 8.86136 55.0869 8.27794C57.3891 7.54425 59.7699 6.78431 61.6928 7.89731C63.6484 9.02738 64.1865 11.4922 64.6944 13.8757C64.8526 15.3018 65.3445 16.6705 66.1303 17.871C67.3304 18.6563 68.6987 19.1478 70.1243 19.3056C72.5078 19.8214 74.9726 20.3556 76.1027 22.3073C77.217 24.2314 76.4571 26.6123 75.7221 28.9144C75.1386 30.2515 74.8812 31.7081 74.9713 33.1642C75.6071 34.412 76.5264 35.4935 77.6554 36.3221C79.485 37.9785 81.375 39.69 81.375 42C81.375 44.31 79.485 46.0215 77.6554 47.6779C76.5264 48.5065 75.6071 49.588 74.9713 50.8357C74.8813 52.2923 75.1386 53.7493 75.7221 55.0869C76.4571 57.3878 77.217 59.7686 76.1027 61.6928C74.9726 63.6484 72.5078 64.1865 70.1243 64.6944C68.6982 64.8526 67.3295 65.3445 66.129 66.1303C65.3437 67.3304 64.8522 68.6987 64.6944 70.1243C64.1786 72.5078 63.6444 74.9726 61.6928 76.1027C59.7699 77.2183 57.3891 76.4571 55.0856 75.7221C53.749 75.1369 52.292 74.8795 50.8357 74.9713C49.588 75.6071 48.5065 76.5264 47.6779 77.6554C46.0215 79.485 44.31 81.375 42 81.375ZM32.5132 72.2702C32.9617 72.267 33.4086 72.3221 33.8428 72.4342C35.608 73.1588 37.1393 74.3559 38.2686 75.894C39.5391 77.2984 40.8542 78.75 42 78.75C43.1458 78.75 44.4609 77.2984 45.7314 75.894C46.8607 74.3559 48.392 73.1588 50.1572 72.4342C52.1025 72.1656 54.0843 72.4381 55.8849 73.2217C57.6411 73.7822 59.4589 74.361 60.3776 73.8307C61.3266 73.2821 61.7347 71.3948 62.1272 69.5704C62.5551 67.5951 62.9961 65.5515 64.2731 64.2744C65.8073 63.0846 67.6406 62.3419 69.5704 62.1285C71.3948 61.7347 73.2821 61.3279 73.8307 60.3789C74.3558 59.4602 73.7822 57.6424 73.2217 55.8849C72.4375 54.0844 72.165 52.1025 72.4342 50.1572C73.1588 48.392 74.3559 46.8607 75.894 45.7314C77.2984 44.4609 78.75 43.1458 78.75 42C78.75 40.8542 77.2984 39.5391 75.894 38.2686C74.3559 37.1393 73.1588 35.608 72.4342 33.8428C72.165 31.8975 72.4375 29.9156 73.2217 28.1151C73.7822 26.3589 74.3636 24.5411 73.8307 23.6224C73.2821 22.6734 71.3948 22.2653 69.5704 21.8728C67.5938 21.4449 65.5515 21 64.2744 19.7269C63.0846 18.1927 62.3419 16.3594 62.1285 14.4296C61.7347 12.6053 61.3279 10.7179 60.3789 10.1693C59.4602 9.63769 57.6437 10.2178 55.8849 10.7782C54.0844 11.5625 52.1025 11.835 50.1572 11.5658C48.392 10.8412 46.8607 9.64409 45.7314 8.106C44.4609 6.70162 43.1458 5.25 42 5.25C40.8542 5.25 39.5391 6.70162 38.2686 8.106C37.1393 9.64409 35.608 10.8412 33.8428 11.5658C31.8975 11.8345 29.9157 11.562 28.1151 10.7782C26.3576 10.2165 24.5438 9.63506 23.625 10.1693C22.6761 10.7179 22.2679 12.6053 21.8754 14.4296C21.4449 16.4063 21 18.4485 19.7269 19.7256C18.1927 20.9154 16.3594 21.6581 14.4296 21.8715C12.6053 22.2652 10.7179 22.6721 10.1693 23.6211C9.63769 24.5398 10.2178 26.3576 10.7782 28.1151C11.5625 29.9156 11.835 31.8975 11.5658 33.8428C10.8412 35.608 9.64409 37.1393 8.106 38.2686C6.70162 39.5391 5.25 40.8542 5.25 42C5.25 43.1458 6.70162 44.4609 8.106 45.7314C9.64409 46.8607 10.8412 48.392 11.5658 50.1572C11.835 52.1025 11.5625 54.0844 10.7782 55.8849C10.2178 57.6411 9.63638 59.4562 10.1693 60.375C10.7179 61.3239 12.6053 61.7321 14.4296 62.1246C16.4049 62.5524 18.4485 62.9934 19.7256 64.2705C20.9154 65.8047 21.6581 67.638 21.8715 69.5677C22.2652 71.3921 22.6721 73.2795 23.6211 73.8281C24.5398 74.3623 26.3589 73.7809 28.1151 73.2191C29.5257 72.6856 31.0081 72.3657 32.5132 72.2702Z" fill="#333333"/>
<path d="M42 73.5C39.9945 73.5 38.6781 71.6231 37.4062 69.8092C36.729 68.8433 35.7997 67.5203 35.2052 67.3614C34.049 67.4472 32.9289 67.8023 31.9344 68.3983C29.9657 69.3092 27.9261 70.2516 26.2474 69.2816C24.5411 68.2986 24.3456 66.0411 24.1474 63.8584C24.1686 62.7191 23.9251 61.5905 23.436 60.5614C22.4069 60.0723 21.2782 59.8288 20.139 59.85C17.9576 59.6557 15.7001 59.4562 14.7157 57.75C13.7458 56.0713 14.6882 54.0343 15.6004 52.0629C16.1977 51.0691 16.5529 49.9487 16.6372 48.7922C16.4771 48.1976 15.1554 47.2684 14.1894 46.5898C12.3769 45.3219 10.5 44.0055 10.5 42C10.5 39.9945 12.3769 38.6781 14.1908 37.4062C15.1568 36.729 16.4798 35.7997 16.6386 35.2052C16.5544 34.0487 16.1992 32.9282 15.6017 31.9344C14.6829 29.9657 13.7471 27.9247 14.7184 26.2474C15.7014 24.5411 17.9589 24.3456 20.1416 24.1474C21.2809 24.1686 22.4095 23.9251 23.4386 23.436C23.9277 22.4069 24.1712 21.2782 24.15 20.139C24.3442 17.9576 24.5437 15.7001 26.25 14.7157C27.9287 13.7458 29.9657 14.6882 31.9371 15.6004C32.9305 16.1985 34.0512 16.5538 35.2078 16.6372C35.8024 16.4771 36.7316 15.1554 37.4102 14.1894C38.6781 12.3769 39.9945 10.5 42 10.5C44.0055 10.5 45.3219 12.3769 46.5938 14.1908C47.271 15.1568 48.2002 16.4798 48.7948 16.6386C49.9517 16.5565 51.0727 16.2012 52.0656 15.6017C54.0343 14.6908 56.0739 13.7484 57.7526 14.7184C59.4589 15.7014 59.6544 17.9589 59.8526 20.1416C59.8314 21.2809 60.0749 22.4095 60.564 23.4386C61.5931 23.9277 62.7218 24.1712 63.861 24.15C66.0424 24.3442 68.2999 24.5437 69.2842 26.25C70.2542 27.9287 69.3118 29.9657 68.3996 31.9371C67.8023 32.9309 67.4471 34.0513 67.3628 35.2078C67.5229 35.8024 68.8446 36.7316 69.8106 37.4102C71.6231 38.6781 73.5 39.9945 73.5 42C73.5 44.0055 71.6231 45.3219 69.8092 46.5938C68.8433 47.271 67.5203 48.2002 67.3614 48.7948C67.4456 49.9513 67.8008 51.0718 68.3983 52.0656C69.3171 54.0343 70.2529 56.0752 69.2816 57.7526C68.2986 59.4589 66.0411 59.6544 63.8584 59.8526C62.7191 59.8314 61.5905 60.0749 60.5614 60.564C60.0723 61.5931 59.8288 62.7218 59.85 63.861C59.6557 66.0424 59.4562 68.2999 57.75 69.2842C56.0713 70.2542 54.0343 69.3118 52.0629 68.3996C51.0698 67.8008 49.949 67.4455 48.7922 67.3628C48.1976 67.5229 47.2684 68.8446 46.5898 69.8106C45.3219 71.6231 44.0055 73.5 42 73.5ZM34.9768 64.7062C35.2815 64.7046 35.5851 64.743 35.8798 64.8204C37.3971 65.226 38.493 66.7892 39.5548 68.2959C40.2727 69.3262 41.3595 70.875 42 70.875C42.6405 70.875 43.7273 69.3263 44.4478 68.3012C45.507 66.7918 46.6016 65.2312 48.1228 64.8257C49.6978 64.407 51.4644 65.2194 53.1746 66.0161C54.2115 66.4952 55.9466 67.2971 56.4441 67.0097C56.9691 66.7091 57.1292 64.8546 57.2394 63.6274C57.4048 61.7649 57.5754 59.8382 58.7094 58.7068C59.8434 57.5754 61.7676 57.4022 63.63 57.2355C64.8572 57.1266 66.7118 56.9625 67.0136 56.448C67.3011 55.9492 66.4991 54.2167 66.0201 53.1772C65.2326 51.471 64.4096 49.6965 64.8296 48.1267C65.2352 46.6095 66.7984 45.5136 68.3051 44.4518C69.3262 43.7272 70.875 42.6405 70.875 42C70.875 41.3595 69.3263 40.2728 68.3012 39.5522C66.7918 38.493 65.2312 37.3984 64.8257 35.8772C64.4057 34.3022 65.2194 32.5356 66.0161 30.8254C66.4965 29.7885 67.2984 28.0534 67.0097 27.5559C66.7091 27.0309 64.8546 26.8708 63.6274 26.7606C61.7649 26.5952 59.8382 26.4246 58.7068 25.2906C57.5754 24.1566 57.4022 22.2324 57.2355 20.37C57.1266 19.1428 56.9625 17.2883 56.448 16.9864C55.9479 16.7003 54.2167 17.5009 53.1772 17.9799C51.471 18.7674 49.6991 19.5891 48.1267 19.1704C46.6095 18.7648 45.5136 17.2016 44.4518 15.6949C43.7272 14.6738 42.6405 13.125 42 13.125C41.3595 13.125 40.2728 14.6738 39.5522 15.6988C38.493 17.2082 37.3984 18.7688 35.8772 19.1743C34.3022 19.5956 32.5369 18.7806 30.8254 17.9839C29.7872 17.5035 28.0481 16.7016 27.5559 16.9903C27.0309 17.2909 26.8708 19.1454 26.7606 20.3726C26.5952 22.2351 26.4246 24.1618 25.2906 25.2932C24.1566 26.4246 22.2324 26.5978 20.37 26.7645C19.1428 26.8734 17.2883 27.0375 16.9864 27.5586C16.6989 28.0573 17.5009 29.7898 17.9799 30.8293C18.7674 32.5356 19.5904 34.3101 19.1704 35.8798C18.7648 37.3971 17.2016 38.493 15.6949 39.5548C14.6738 40.2727 13.125 41.3595 13.125 42C13.125 42.6405 14.6738 43.7273 15.6988 44.4478C17.2082 45.507 18.7688 46.6016 19.1743 48.1228C19.5943 49.6978 18.7806 51.4644 17.9839 53.1746C17.5035 54.2115 16.7016 55.9466 16.9903 56.4441C17.2909 56.9691 19.1454 57.1292 20.3726 57.2394C22.2351 57.4048 24.1618 57.5754 25.2932 58.7094C26.4246 59.8434 26.5978 61.7676 26.7645 63.63C26.8734 64.8572 27.0375 66.7118 27.5586 67.0136C28.0796 67.3155 29.7898 66.5004 30.8293 66.0201C32.1071 65.3023 33.5188 64.855 34.9768 64.7062Z" fill="#333333"/>
<path d="M32.8122 52.5C32.5527 52.4999 32.299 52.4229 32.0832 52.2787C31.8674 52.1345 31.6992 51.9295 31.5999 51.6897C31.5006 51.4499 31.4746 51.1861 31.5252 50.9315C31.5758 50.6769 31.7008 50.4431 31.8843 50.2595L50.2593 31.8845C50.5068 31.6455 50.8384 31.5132 51.1825 31.5162C51.5266 31.5192 51.8558 31.6572 52.0992 31.9005C52.3425 32.1439 52.4806 32.4731 52.4835 32.8172C52.4865 33.1613 52.3542 33.4929 52.1152 33.7404L33.7402 52.1154C33.4941 52.3616 33.1603 52.4999 32.8122 52.5Z" fill="#333333"/>
<path d="M48.5625 53.8125C47.5242 53.8125 46.5091 53.5046 45.6458 52.9277C44.7824 52.3508 44.1095 51.5309 43.7121 50.5716C43.3148 49.6123 43.2108 48.5567 43.4134 47.5383C43.616 46.5199 44.116 45.5844 44.8502 44.8502C45.5844 44.116 46.5199 43.616 47.5383 43.4134C48.5567 43.2108 49.6123 43.3148 50.5716 43.7121C51.5309 44.1095 52.3509 44.7824 52.9277 45.6458C53.5046 46.5091 53.8125 47.5241 53.8125 48.5625C53.8125 49.9549 53.2594 51.2902 52.2748 52.2748C51.2903 53.2594 49.9549 53.8125 48.5625 53.8125ZM48.5625 45.9375C48.0433 45.9375 47.5358 46.0915 47.1041 46.3799C46.6725 46.6683 46.336 47.0783 46.1373 47.558C45.9386 48.0376 45.8867 48.5654 45.9879 49.0746C46.0892 49.5838 46.3392 50.0515 46.7063 50.4187C47.0735 50.7858 47.5412 51.0358 48.0504 51.1371C48.5596 51.2383 49.0874 51.1864 49.5671 50.9877C50.0467 50.789 50.4567 50.4525 50.7451 50.0209C51.0336 49.5892 51.1875 49.0817 51.1875 48.5625C51.1875 47.8663 50.911 47.1986 50.4187 46.7063C49.9264 46.2141 49.2587 45.9375 48.5625 45.9375Z" fill="#333333"/>
<path d="M35.4375 40.6875C34.3992 40.6875 33.3841 40.3796 32.5208 39.8027C31.6574 39.2258 30.9845 38.4059 30.5871 37.4466C30.1898 36.4873 30.0858 35.4317 30.2884 34.4133C30.491 33.3949 30.991 32.4594 31.7252 31.7252C32.4594 30.991 33.3949 30.491 34.4133 30.2884C35.4317 30.0858 36.4873 30.1898 37.4466 30.5871C38.4059 30.9845 39.2258 31.6574 39.8027 32.5208C40.3796 33.3841 40.6875 34.3992 40.6875 35.4375C40.6875 36.8299 40.1344 38.1652 39.1498 39.1498C38.1652 40.1344 36.8299 40.6875 35.4375 40.6875ZM35.4375 32.8125C34.9183 32.8125 34.4108 32.9665 33.9791 33.2549C33.5475 33.5433 33.211 33.9533 33.0123 34.433C32.8136 34.9126 32.7617 35.4404 32.8629 35.9496C32.9642 36.4588 33.2142 36.9265 33.5813 37.2937C33.9485 37.6608 34.4162 37.9108 34.9254 38.0121C35.4346 38.1134 35.9624 38.0614 36.442 37.8627C36.9217 37.664 37.3317 37.3276 37.6201 36.8959C37.9086 36.4642 38.0625 35.9567 38.0625 35.4375C38.0625 34.7413 37.7859 34.0736 37.2937 33.5813C36.8014 33.0891 36.1337 32.8125 35.4375 32.8125Z" fill="#333333"/>
</svg>
