<svg width="84" height="84" viewBox="0 0 84 84" fill="none" xmlns="http://www.w3.org/2000/svg">
<rect x="9.5" y="9.5" width="65" height="65" stroke="#4195DF" stroke-width="3"/>
<path d="M40.6875 60.375H43.3125V63H40.6875V60.375Z" fill="#333333"/>
<path d="M30.0786 3.9375C29.4564 7.623 26.2684 10.4462 22.4214 10.5C23.0436 6.8145 26.2316 3.99131 30.0786 3.9375Z" fill="white"/>
<path d="M17.3263 5.73956C19.3725 7.78706 19.3725 11.1169 17.3263 13.1644C16.3341 12.1721 15.7881 10.8544 15.7881 9.45263C15.7881 8.04956 16.3341 6.7305 17.3263 5.73956Z" fill="white"/>
<path d="M10.5263 13.4767C11.7416 14.1776 12.6092 15.309 12.9727 16.6648C13.335 18.0193 13.1486 19.4342 12.4478 20.6483C11.2324 19.9474 10.3648 18.816 10.0013 17.4602C9.63769 16.1057 9.82406 14.6908 10.5263 13.4767Z" fill="white"/>
<path d="M5.95875 22.7115C7.31325 23.0738 8.44594 23.9426 9.14681 25.1567C9.84769 26.3707 10.0341 27.7856 9.6705 29.1414C8.316 28.7779 7.18331 27.9103 6.48244 26.6949C5.78156 25.4796 5.5965 24.066 5.95875 22.7115Z" fill="white"/>
<path d="M3.9375 32.8125C6.83288 32.8125 9.1875 35.1671 9.1875 38.0625C6.29212 38.0625 3.9375 35.7079 3.9375 32.8125Z" fill="white"/>
<path d="M4.60031 43.0933C5.9535 42.7311 7.36837 42.9174 8.58375 43.617C9.79781 44.3179 10.6667 45.4492 11.0289 46.8051C9.67706 47.1699 8.26087 46.9823 7.0455 46.2814C5.83144 45.5805 4.96256 44.4478 4.60031 43.0933Z" fill="white"/>
<path d="M7.90125 52.8531C10.4094 51.4028 13.6211 52.2664 15.0701 54.7693C15.0701 54.7706 15.0714 54.7719 15.0714 54.7732C12.5606 56.2222 9.34762 55.3573 7.90125 52.8531Z" fill="white"/>
<path d="M12.18 74.8125L7.98131 69.5625H18.375V72.8713L28.6492 80.0625H7.98131L12.18 74.8125Z" fill="white"/>
<path d="M31.5 78.8537L23.8508 73.5H31.5V78.8537Z" fill="white"/>
<path d="M60.1493 73.5L52.5 78.8537V73.5H60.1493Z" fill="white"/>
<path d="M76.0187 69.5625L71.82 74.8125L76.0187 80.0625H55.3507L65.625 72.8713V69.5625H76.0187Z" fill="white"/>
<path d="M68.9286 54.7732C68.9299 54.7719 68.9299 54.7706 68.9299 54.7693C70.3789 52.2664 73.5932 51.4041 76.0987 52.8531C74.6511 55.3573 71.4367 56.2236 68.9286 54.7732Z" fill="white"/>
<path d="M79.3997 43.0933C79.0374 44.4491 78.1686 45.5805 76.9545 46.2814C75.7404 46.9823 74.3256 47.1673 72.9711 46.8051C73.3333 45.4506 74.2022 44.3179 75.4163 43.617C76.6316 42.9174 78.0465 42.7311 79.3997 43.0933Z" fill="white"/>
<path d="M74.8125 38.0625C74.8125 35.1671 77.1671 32.8125 80.0625 32.8125C80.0625 35.7079 77.7079 38.0625 74.8125 38.0625Z" fill="white"/>
<path d="M78.0413 22.7115C78.4035 24.066 78.2184 25.4809 77.5176 26.6949C76.8167 27.909 75.6853 28.7779 74.3295 29.1414C73.9672 27.7869 74.1523 26.3721 74.8532 25.1567C75.5541 23.9426 76.6868 23.0751 78.0413 22.7115Z" fill="white"/>
<path d="M71.0273 16.6648C71.3908 15.3103 72.2584 14.1776 73.4737 13.4767C74.1746 14.6908 74.3623 16.1057 73.9987 17.4602C73.6352 18.8147 72.7676 19.9474 71.5522 20.6483C70.8514 19.4342 70.665 18.0193 71.0273 16.6648Z" fill="white"/>
<path d="M66.6737 5.73956C67.6659 6.73181 68.2119 8.04956 68.2119 9.45263C68.2119 10.8544 67.6659 12.1721 66.6737 13.1644C64.6275 11.1169 64.6275 7.78575 66.6737 5.73956Z" fill="white"/>
<path d="M53.9214 3.9375C57.7684 3.99 60.9564 6.8145 61.5786 10.4987C57.7316 10.4462 54.5436 7.623 53.9214 3.9375Z" fill="white"/>
<path d="M82.6875 32.8125V30.1875H80.0625C78.9469 30.1875 77.8864 30.4237 76.9243 30.8438C78.0964 30.1626 79.0939 29.2123 79.7895 28.0074C80.8421 26.1857 81.1217 24.0634 80.577 22.0316L79.8971 19.4946L77.3614 20.1757C76.2773 20.4658 75.3008 20.9856 74.4542 21.6707C75.4346 20.7008 76.1683 19.5064 76.5345 18.1401C77.0779 16.1083 76.7983 13.986 75.747 12.1642L74.4345 9.891L72.1612 11.2035C71.2793 11.7128 70.5259 12.3795 69.9143 13.1565C70.5167 12.0304 70.8369 10.7651 70.8369 9.45131C70.8369 7.34738 70.0179 5.37075 68.5296 3.88238L66.6737 2.0265L64.8178 3.88238C63.9791 4.72106 63.3911 5.70937 63.0105 6.75675C61.2216 3.51487 57.771 1.3125 53.8125 1.3125H51.1875V2.625C51.1875 6.73313 53.5644 10.2887 57.0111 12.012C56.4834 12.3349 55.986 12.7142 55.5371 13.1631L53.6813 15.0203L55.5371 16.8761C56.4874 17.8251 57.6371 18.4997 58.8919 18.8646L58.5231 19.0772L59.8356 21.3504C60.5128 22.5225 61.4775 23.4491 62.6076 24.1277L62.1508 24.2498L62.8307 26.7855C63.1851 28.1085 63.8584 29.2609 64.7456 30.1862H64.3125V32.8112C64.3125 34.1801 64.6656 35.469 65.2824 36.5912L64.8664 36.4796L64.1865 39.0154C63.8387 40.3134 63.8308 41.6469 64.1419 42.9161L63.7718 42.7022L62.4593 44.9741C60.3606 48.6124 61.509 53.2389 64.9871 55.5017C63.5053 57.2841 61.8083 58.9155 59.9196 60.3724H56.2012L56.8562 57.1003L47.8577 60.0994L42 49.854L36.1436 60.102L27.1451 57.1029L27.7987 60.375H24.0804C22.1917 58.9181 20.4947 57.2867 19.0129 55.5043C22.491 53.2403 23.6394 48.615 21.5408 44.9768L20.2283 42.7048L19.8581 42.9188C20.1692 41.6496 20.1613 40.3148 19.8135 39.018L19.1336 36.4823L18.7176 36.5938C19.3344 35.4703 19.6875 34.1814 19.6875 32.8125V30.1875H19.257C20.1442 29.2622 20.8176 28.1098 21.1719 26.7868L21.8518 24.2511L21.3951 24.129C22.5238 23.4504 23.4898 22.5238 24.1671 21.3517L25.4796 19.0785L25.1108 18.8659C26.3655 18.4997 27.5152 17.8264 28.4655 16.8774L30.3214 15.0216L28.4655 13.1644C28.0166 12.7155 27.5192 12.3362 26.9916 12.0133C30.4356 10.2887 32.8125 6.73313 32.8125 2.625V1.3125H30.1875C26.229 1.3125 22.7784 3.51488 20.9895 6.75806C20.6089 5.71069 20.0209 4.72238 19.1822 3.88369L17.3263 2.02781L15.4704 3.88369C13.9821 5.37075 13.1631 7.34869 13.1631 9.45263C13.1631 10.7664 13.482 12.0304 14.0858 13.1578C13.4741 12.3808 12.7208 11.7141 11.8388 11.2048L9.5655 9.89231L8.253 12.1656C7.20169 13.9873 6.92213 16.1083 7.4655 18.1414C7.83169 19.5077 8.56669 20.7021 9.54581 21.672C8.69925 20.9869 7.72275 20.4671 6.63863 20.1771L4.10287 19.4959L3.423 22.0329C2.87831 24.0647 3.15787 26.187 4.2105 28.0088C4.90612 29.2136 5.90362 30.1639 7.07569 30.8451C6.11362 30.4237 5.05313 30.1875 3.9375 30.1875H1.3125V32.8125C1.3125 36.3576 3.66712 39.3606 6.89456 40.3449C5.9115 40.2268 4.90481 40.2937 3.92044 40.5576L1.38469 41.2374L2.06456 43.7732C2.60794 45.8049 3.91125 47.5033 5.733 48.5546C6.888 49.2214 8.16506 49.5679 9.46181 49.6007C8.47613 49.7332 7.50094 50.0522 6.58744 50.5798L4.31419 51.8923L5.62669 54.1643C7.08356 56.6882 9.73612 58.1004 12.4596 58.1004C13.7957 58.1004 15.1476 57.7605 16.3839 57.0465L16.7291 56.8483C17.7358 58.0913 18.8331 59.2699 20.0222 60.3763H18.375V66.9388H2.51869L8.82 74.8138L2.51869 82.6888H34.125V73.5013H49.875V82.6888H81.4813L75.18 74.8138L81.4813 66.9388H65.625V60.3763H63.9778C65.1669 59.2712 66.2642 58.0913 67.2709 56.8483L67.6161 57.0465C68.8524 57.7605 70.2056 58.1004 71.5404 58.1004C74.2639 58.1004 76.9164 56.6882 78.3733 54.1643L79.6858 51.8923L77.4126 50.5798C76.5004 50.0522 75.5239 49.7332 74.5382 49.6007C75.8363 49.5679 77.112 49.2227 78.267 48.5546C80.0888 47.5033 81.3921 45.8049 81.9354 43.7732L82.6153 41.2374L80.0796 40.5576C79.0965 40.2937 78.0911 40.2268 77.1094 40.3436C80.3342 39.3579 82.6875 36.3563 82.6875 32.8125ZM17.4247 53.403C17.3237 53.2586 17.22 53.1142 17.1216 52.9686C16.6294 51.8713 16.5047 50.6559 16.8197 49.4786C17.1832 48.1241 18.0508 46.9914 19.2662 46.2906C20.6968 48.7686 19.8647 51.933 17.4247 53.403ZM16.7541 43.6787C16.0676 44.8678 14.9638 45.7183 13.6474 46.095C13.5844 45.9191 13.5319 45.7406 13.4728 45.5634C13.2891 44.3848 13.4859 43.1891 14.0897 42.1418C14.7906 40.9277 15.9233 40.0588 17.2791 39.6952C17.64 41.0497 17.4549 42.4646 16.7541 43.6787ZM11.9306 38.0507C11.9136 37.842 11.8899 37.6359 11.8768 37.4272C12.1944 34.8338 14.385 32.8125 17.0625 32.8125C17.0625 35.6672 14.7709 37.9864 11.9306 38.0507ZM12.3283 29.8397C12.369 29.6139 12.4071 29.3869 12.453 29.1611C12.8927 28.1033 13.6434 27.2134 14.6527 26.6319C15.8681 25.9311 17.283 25.746 18.6362 26.1069C17.8973 28.8619 15.0872 30.5051 12.3283 29.8397ZM12.0789 49.2411C12.1524 49.4091 12.2338 49.5731 12.3112 49.7398C11.7915 49.6191 11.2599 49.5508 10.7244 49.5364C11.0539 49.4918 11.3833 49.4274 11.7101 49.3395L12.0789 49.2411ZM18.7044 22.4858C17.3919 22.8375 16.0269 22.6629 14.8378 22.0132C14.9336 21.8098 15.0229 21.6051 15.1226 21.4043C16.7003 19.3476 19.5877 18.7071 21.8925 20.0392C21.1916 21.2533 20.0589 22.1222 18.7044 22.4858ZM26.607 15.0203C24.6514 16.9746 21.273 16.9929 19.2754 15.0951C19.4171 14.9284 19.5549 14.7578 19.6993 14.5937C20.6141 13.8849 21.7179 13.482 22.8939 13.482C24.297 13.482 25.6161 14.028 26.607 15.0203ZM30.0786 3.9375C29.4564 7.623 26.2684 10.4462 22.4214 10.5C23.0436 6.8145 26.2316 3.99131 30.0786 3.9375ZM17.3263 5.73956C19.3725 7.78706 19.3725 11.1169 17.3263 13.1644C16.3341 12.1721 15.7881 10.8544 15.7881 9.45263C15.7881 8.04956 16.3341 6.7305 17.3263 5.73956ZM15.4704 15.0189L15.7671 15.3169C15.6555 15.4704 15.5387 15.6214 15.4284 15.7763C15.2526 15.1883 15.0032 14.6383 14.7039 14.1172C14.9389 14.4322 15.1882 14.7367 15.4704 15.0189ZM10.5263 13.4767C11.7416 14.1776 12.6092 15.309 12.9727 16.6648C13.335 18.0193 13.1486 19.4342 12.4478 20.6483C11.2324 19.9474 10.3648 18.816 10.0013 17.4602C9.63769 16.1057 9.82406 14.6908 10.5263 13.4767ZM11.1339 22.9215L11.5001 23.1328C11.4306 23.3126 11.3623 23.4924 11.2954 23.6722C10.9476 23.1039 10.5236 22.6052 10.0577 22.1511C10.3963 22.4306 10.7467 22.6984 11.1339 22.9215ZM5.95875 22.7115C7.31325 23.0738 8.44594 23.9426 9.14681 25.1567C9.84769 26.3708 10.0341 27.7856 9.6705 29.1414C8.316 28.7779 7.18331 27.9103 6.48244 26.6949C5.78156 25.4796 5.5965 24.066 5.95875 22.7115ZM8.99194 31.6759L9.38962 31.7822C9.36862 31.9699 9.3555 32.1576 9.33844 32.3452C8.90006 31.9318 8.41575 31.5683 7.89337 31.2624C8.24906 31.4186 8.60737 31.5735 8.99194 31.6759ZM3.9375 32.8125C6.83288 32.8125 9.1875 35.1671 9.1875 38.0625C6.29212 38.0625 3.9375 35.7079 3.9375 32.8125ZM9.1875 40.6875H9.597C9.62456 40.8686 9.64556 41.0511 9.67575 41.2309C9.19406 40.9723 8.694 40.7676 8.18081 40.6166C8.51156 40.6586 8.84625 40.6875 9.1875 40.6875ZM4.60031 43.0933C5.9535 42.7311 7.36837 42.9174 8.58375 43.617C9.79781 44.3179 10.6667 45.4492 11.0289 46.8051C9.67706 47.1699 8.26088 46.9823 7.0455 46.2814C5.83144 45.5805 4.96256 44.4478 4.60031 43.0933ZM7.90125 52.8531C10.4094 51.4028 13.6211 52.2664 15.0701 54.7693C15.0701 54.7706 15.0714 54.7719 15.0714 54.7732C12.5606 56.2222 9.34762 55.3573 7.90125 52.8531ZM63 63V70.875H54.1012L55.6762 63H63ZM37.3564 63.273L42 55.146L46.6436 63.273L53.3951 61.0221L52.4738 65.625H43.3125V68.25H51.9488L51.4238 70.875H32.5763L32.0513 68.25H40.6875V65.625H31.5263L30.6062 61.0221L37.3564 63.273ZM29.8988 70.875H21V63H28.3237L29.8988 70.875ZM12.18 74.8125L7.98131 69.5625H18.375V72.8713L28.6492 80.0625H7.98131L12.18 74.8125ZM31.5 78.8537L23.8508 73.5H31.5V78.8537ZM60.1493 73.5L52.5 78.8537V73.5H60.1493ZM76.0187 69.5625L71.82 74.8125L76.0187 80.0625H55.3507L65.625 72.8713V69.5625H76.0187ZM72.2912 49.3408C72.618 49.4287 72.9461 49.4917 73.2769 49.5377C72.7414 49.5521 72.2098 49.6204 71.6901 49.7411C71.7675 49.5744 71.8476 49.4104 71.9224 49.2424L72.2912 49.3408ZM69.3472 26.6332C70.3566 27.216 71.1073 28.1059 71.547 29.1624C71.5929 29.3869 71.631 29.6139 71.6717 29.8397C68.9115 30.5064 66.1027 28.8632 65.3638 26.1069C66.7183 25.746 68.1319 25.9311 69.3472 26.6332ZM72.1232 37.4272C72.1101 37.6359 72.0864 37.8433 72.0694 38.0507C69.2291 37.9864 66.9375 35.6672 66.9375 32.8125C69.615 32.8125 71.8056 34.8338 72.1232 37.4272ZM69.9116 42.1418C70.5167 43.1891 70.7122 44.3835 70.5298 45.5634C70.4707 45.7406 70.4169 45.9191 70.3552 46.095C69.0388 45.7196 67.935 44.8678 67.2486 43.6787C66.5477 42.4646 66.3613 41.0511 66.7249 39.6952C68.0768 40.0588 69.2094 40.9277 69.9116 42.1418ZM74.6616 32.3466C74.6445 32.1589 74.6314 31.9712 74.6104 31.7835L75.0081 31.6772C75.3913 31.5748 75.7496 31.4199 76.1079 31.2638C75.5843 31.5696 75.0999 31.9318 74.6616 32.3466ZM78.0413 22.7115C78.4035 24.066 78.2184 25.4809 77.5176 26.6949C76.8167 27.909 75.6853 28.7779 74.3295 29.1414C73.9672 27.7869 74.1523 26.3721 74.8532 25.1567C75.5541 23.9426 76.6868 23.0751 78.0413 22.7115ZM72.7033 23.6722C72.6364 23.4911 72.5681 23.3113 72.4986 23.1328L72.8647 22.9215C73.2519 22.6971 73.6037 22.4306 73.941 22.1511C73.4751 22.6052 73.0524 23.1039 72.7033 23.6722ZM71.0273 16.6648C71.3908 15.3103 72.2584 14.1776 73.4737 13.4767C74.1746 14.6908 74.3623 16.1057 73.9987 17.4602C73.6352 18.8147 72.7676 19.9474 71.5522 20.6483C70.8514 19.4342 70.665 18.0193 71.0273 16.6648ZM69.2948 14.1172C68.9968 14.6383 68.7461 15.1883 68.5703 15.7763C68.4613 15.6214 68.3445 15.4704 68.2316 15.3169L68.5283 15.0203C68.8118 14.7368 69.0611 14.4322 69.2948 14.1172ZM66.6737 5.73956C67.6659 6.73181 68.2119 8.04956 68.2119 9.45263C68.2119 10.8544 67.6659 12.1721 66.6737 13.1644C64.6275 11.1169 64.6275 7.78575 66.6737 5.73956ZM53.9214 3.9375C57.7684 3.99 60.9564 6.8145 61.5786 10.4987C57.7316 10.4462 54.5436 7.623 53.9214 3.9375ZM57.393 15.0189C58.3853 14.028 59.7043 13.482 61.1061 13.482C62.2821 13.482 63.3859 13.8849 64.3007 14.5937C64.4451 14.7578 64.5829 14.9284 64.7246 15.0951C62.727 16.9929 59.3473 16.9746 57.393 15.0189ZM68.8787 21.4043C68.9784 21.6051 69.0677 21.8111 69.1635 22.0146C67.9757 22.6616 66.6107 22.8375 65.2956 22.4858C63.9411 22.1222 62.8084 21.2546 62.1075 20.0392C64.4096 18.7097 67.2998 19.3476 68.8787 21.4043ZM64.7325 46.2893C65.9479 46.9914 66.8154 48.1228 67.179 49.4786C67.494 50.6559 67.3693 51.8713 66.8771 52.9686C66.7787 53.1156 66.675 53.2586 66.5739 53.403C64.134 51.9317 63.3032 48.7673 64.7325 46.2893ZM68.9286 54.7732C68.9299 54.7719 68.9299 54.7706 68.9299 54.7693C70.3789 52.2664 73.5932 51.4041 76.0987 52.8531C74.6511 55.3573 71.4367 56.2236 68.9286 54.7732ZM79.3997 43.0933C79.0374 44.4491 78.1686 45.5805 76.9545 46.2814C75.7404 46.9823 74.3256 47.1673 72.9711 46.8051C73.3333 45.4506 74.2022 44.3179 75.4163 43.617C76.6316 42.9174 78.0465 42.7311 79.3997 43.0933ZM74.3242 41.2309C74.3544 41.0511 74.3754 40.8686 74.403 40.6875H74.8125C75.1524 40.6875 75.4858 40.6586 75.8139 40.6166C75.3021 40.7689 74.8046 40.9723 74.3242 41.2309ZM74.8125 38.0625C74.8125 35.1671 77.1671 32.8125 80.0625 32.8125C80.0625 35.7079 77.7079 38.0625 74.8125 38.0625Z" fill="#333333"/>
</svg>
