<svg width="84" height="84" viewBox="0 0 84 84" fill="none" xmlns="http://www.w3.org/2000/svg">
<g clip-path="url(#clip0)">
<rect x="9.5" y="9.5" width="65" height="65" stroke="#4195DF" stroke-width="3"/>
<path d="M23.724 43.3334C24.4603 43.3334 25.0573 42.7365 25.0573 42.0001C25.0573 41.2637 24.4603 40.6667 23.724 40.6667C22.9876 40.6667 22.3906 41.2637 22.3906 42.0001C22.3906 42.7365 22.9876 43.3334 23.724 43.3334Z" fill="#333333"/>
<path d="M39.724 34C40.4603 34 41.0573 33.4031 41.0573 32.6667C41.0573 31.9303 40.4603 31.3334 39.724 31.3334C38.9876 31.3334 38.3906 31.9303 38.3906 32.6667C38.3906 33.4031 38.9876 34 39.724 34Z" fill="#333333"/>
<path d="M38.3909 51.3334C39.1273 51.3334 39.7243 50.7365 39.7243 50.0001C39.7243 49.2637 39.1273 48.6667 38.3909 48.6667C37.6546 48.6667 37.0576 49.2637 37.0576 50.0001C37.0576 50.7365 37.6546 51.3334 38.3909 51.3334Z" fill="#333333"/>
<path d="M35.724 23.3334C36.4603 23.3334 37.0573 22.7365 37.0573 22.0001C37.0573 21.2637 36.4603 20.6667 35.724 20.6667C34.9876 20.6667 34.3906 21.2637 34.3906 22.0001C34.3906 22.7365 34.9876 23.3334 35.724 23.3334Z" fill="#333333"/>
<path d="M54.106 80.6667C53.4473 79.5687 51.9853 77.2327 49.8283 74.3567C47.364 71.0717 48.127 66.462 50.0306 60.552C50.235 59.9187 50.5906 59.1287 51.1256 58.964C52.4303 58.559 55.3113 60.7987 57.6196 62.598L57.6296 62.6058C58.343 63.1612 59.0599 63.7194 59.7673 64.2394C63.606 67.06 66.5013 67.8884 67.7236 68.1277V80.6667H54.106Z" fill="white"/>
<path d="M43.724 56.1334C43.7436 56.1077 43.7723 56.0937 43.7903 56.0664C44.353 55.211 45.3366 54.524 46.886 53.905C53.158 51.392 61.918 55.4134 64.1146 57.6094C65.6586 59.1534 66.8603 59.8824 67.724 60.23V65.3877C66.5836 65.0897 64.3316 64.2837 61.347 62.091C60.655 61.5827 59.9556 61.0377 59.259 60.4947C56.031 57.9784 52.979 55.602 50.341 56.4154C49.0296 56.819 48.0713 57.9357 47.4926 59.7344C45.6253 65.5307 44.3573 71.5077 47.695 75.957C49.0943 77.823 50.2003 79.4707 50.9653 80.6667H43.7236L43.724 56.1334Z" fill="white"/>
<path d="M40.7116 74C40.052 72.9807 36.3016 66.74 39.534 61.353C40.6386 59.512 40.558 58.021 40.2963 57.0947C39.9553 55.889 39.107 54.8507 37.8433 54.092C33.8486 51.6957 26.743 52.5974 23.9143 57.314C22.8023 59.1677 21.5023 60.279 20.0503 60.6167C18.8216 60.9024 17.71 60.579 17.0573 60.304V53.2667C17.783 53.567 18.665 53.7997 19.7096 53.7997C19.8223 53.7997 19.937 53.797 20.0526 53.792C23.373 53.6357 26.7616 51.2837 30.1236 46.8004C33.562 42.2157 36.9136 40.777 41.0573 40.2214V74H40.7116Z" fill="white"/>
<path d="M37.6363 74H34.9963C34.3606 72.7364 33.0573 69.6964 33.0573 66C33.0573 64.4727 32.8853 62.83 31.612 62.228C30.1884 61.5537 28.7732 62.7153 26.9807 64.1865L26.9753 64.191L26.9581 64.2051C26.166 64.8547 25.2697 65.5896 24.3176 66.2244C21.8176 67.8897 18.5803 67.377 17.0573 66.9954V63.1067C18.0273 63.373 19.253 63.53 20.6066 63.2247C22.8096 62.728 24.6913 61.2014 26.2003 58.6864C28.3683 55.0737 33.841 54.7997 36.471 56.3784C36.9383 56.659 37.5366 57.1374 37.73 57.8204C37.9026 58.4317 37.7403 59.1584 37.247 59.9804C33.9956 65.4 36.1813 71.2047 37.6363 74Z" fill="white"/>
<path d="M17.0573 69.7327C19.172 70.1714 22.7656 70.4637 25.797 68.443C26.8637 67.732 27.8177 66.9494 28.6603 66.2581L28.6673 66.2524L28.6745 66.2464C29.202 65.8137 29.8641 65.2706 30.338 64.954C30.3673 65.193 30.3906 65.5304 30.3906 66.0004C30.3906 69.361 31.2993 72.2044 32.059 74.0004H17.0573V69.7327Z" fill="white"/>
<path d="M70.3906 58.86V23.3334C70.3906 22.597 69.7936 22 69.0573 22H49.0573V2.00002C49.0573 1.26369 48.4603 0.666687 47.724 0.666687H15.724C14.9876 0.666687 14.3906 1.26369 14.3906 2.00002V75.3334C14.3906 76.0697 14.9876 76.6667 15.724 76.6667H41.0573V82C41.0573 82.7364 41.6543 83.3334 42.3906 83.3334H69.0573C69.7936 83.3334 70.3906 82.7364 70.3906 82V59.565C70.4413 59.408 70.4676 59.2417 70.4506 59.069C70.443 58.993 70.4086 58.931 70.3906 58.86ZM67.724 49.7617C66.7813 48.962 65.5873 48.1784 64.1713 47.711C62.931 47.302 62.056 46.4304 61.831 45.3804C61.663 44.597 61.9013 43.8627 62.5023 43.3127C63.7323 42.1854 66.0366 40.5707 67.7243 39.4324V49.7617H67.724ZM67.724 36.2297C66.2483 37.194 62.516 39.682 60.7006 41.3464C59.4116 42.5267 58.8596 44.244 59.2233 45.94C59.6496 47.9257 61.187 49.5344 63.3353 50.2434C65.6133 50.995 67.197 52.923 67.724 53.6374V57.1974C67.265 56.8787 66.6956 56.4194 66 55.724C63.009 52.733 53.2 48.508 45.8953 51.4284C45.0513 51.7664 44.3503 52.1434 43.724 52.549V46.216C46.426 45.9094 48.6646 45.4047 50.8586 44.5817C60.414 40.998 63.8973 28.9017 64.84 24.6664H67.7236V36.2297H67.724ZM37.6363 74H34.9963C34.3606 72.7364 33.0573 69.6964 33.0573 66C33.0573 64.4727 32.8853 62.83 31.612 62.228C30.187 61.553 28.7703 62.7177 26.9753 64.191C26.179 64.844 25.2766 65.585 24.3176 66.2244C21.8176 67.8897 18.5803 67.377 17.0573 66.9954V63.1067C18.0273 63.373 19.253 63.53 20.6066 63.2247C22.8096 62.728 24.6913 61.2014 26.2003 58.6864C28.3683 55.0737 33.841 54.7997 36.471 56.3784C36.9383 56.659 37.5366 57.1374 37.73 57.8204C37.9026 58.4317 37.7403 59.1584 37.247 59.9804C33.9956 65.4 36.1813 71.2047 37.6363 74ZM62.1003 24.6667C61.1733 28.4687 57.919 39.086 49.9226 42.0847C48.0226 42.7974 46.064 43.2454 43.724 43.5304V35.23C43.763 35.2334 43.7966 35.2527 43.8366 35.2527H43.8573C44.1393 35.248 50.811 35.1037 54.7533 31.2684C57.9513 28.1564 59.7343 25.431 60.2073 24.6667H62.1003ZM52.894 29.3567C49.719 32.446 43.8736 32.5854 43.8153 32.586C43.783 32.5867 43.756 32.6034 43.7243 32.606V24.6667H56.9783C56.131 25.8304 54.7833 27.518 52.894 29.3567ZM46.3906 20.1834C46.063 20.8387 45.7143 21.444 45.3533 22H42.3906C41.6543 22 41.0573 22.597 41.0573 23.3334V25.713C37.8596 27.0717 33.0223 27.9457 28.3306 28.7884C27.0943 29.0104 25.877 29.229 24.7116 29.453C21.0483 30.1574 18.618 31.5774 17.0573 32.891V9.57169C18.8716 9.14202 23.7863 8.53335 29.651 12.4427C33.9223 15.2904 38.173 16.0097 41.377 16.0097C43.7973 16.0094 45.6076 15.6014 46.3906 15.3884V20.1834ZM17.0573 36.8637C17.2853 36.447 19.226 33.223 25.2156 32.0717C26.37 31.8497 27.577 31.633 28.8023 31.4127C33.1706 30.6284 37.6656 29.818 41.0576 28.581V32.6667V37.5327C36.1943 38.126 32.0686 39.7634 27.9913 45.2C25.1913 48.933 22.4216 50.982 19.9823 51.125C18.51 51.2097 17.496 50.574 17.058 50.2274V36.8637H17.0573ZM46.3906 3.33335V12.6844C46.2516 12.6837 46.1113 12.688 45.9726 12.7337C45.8976 12.7584 38.4583 15.1087 31.1303 10.224C25.007 6.14202 19.67 6.37035 17.0573 6.85469V3.33335H46.3906ZM17.0573 69.7327C19.172 70.1714 22.7656 70.4637 25.797 68.443C26.8666 67.73 27.823 66.945 28.6673 66.2524C29.196 65.8187 29.862 65.272 30.338 64.954C30.3673 65.193 30.3906 65.5304 30.3906 66.0004C30.3906 69.361 31.2993 72.2044 32.059 74.0004H17.0573V69.7327ZM40.7116 74C40.052 72.9807 36.3016 66.74 39.534 61.353C40.6386 59.512 40.558 58.021 40.2963 57.0947C39.9553 55.889 39.107 54.8507 37.8433 54.092C33.8486 51.6957 26.743 52.5974 23.9143 57.314C22.8023 59.1677 21.5023 60.279 20.0503 60.6167C18.8216 60.9024 17.71 60.579 17.0573 60.304V53.2667C17.783 53.567 18.665 53.7997 19.7096 53.7997C19.8223 53.7997 19.937 53.797 20.0526 53.792C23.373 53.6357 26.7616 51.2837 30.1236 46.8004C33.562 42.2157 36.9136 40.777 41.0573 40.2214V74H40.7116ZM43.724 56.1334C43.7436 56.1077 43.7723 56.0937 43.7903 56.0664C44.353 55.211 45.3366 54.524 46.886 53.905C53.158 51.392 61.918 55.4134 64.1146 57.6094C65.6586 59.1534 66.8603 59.8824 67.724 60.23V65.3877C66.5836 65.0897 64.3316 64.2837 61.347 62.091C60.655 61.5827 59.9556 61.0377 59.259 60.4947C56.031 57.9784 52.979 55.602 50.341 56.4154C49.0296 56.819 48.0713 57.9357 47.4926 59.7344C45.6253 65.5307 44.3573 71.5077 47.695 75.957C49.0943 77.823 50.2003 79.4707 50.9653 80.6667H43.7236V56.1334H43.724ZM54.106 80.6667C53.4473 79.5687 51.9853 77.2327 49.8283 74.3567C47.364 71.0717 48.127 66.462 50.0306 60.552C50.235 59.9187 50.5906 59.1287 51.1256 58.964C52.4303 58.559 55.3113 60.7987 57.6196 62.598C58.3363 63.156 59.0566 63.717 59.7673 64.2394C63.606 67.06 66.5013 67.8884 67.7236 68.1277V80.6667H54.106Z" fill="#333333"/>
<path d="M61.057 76.6667C61.7934 76.6667 62.3903 76.0697 62.3903 75.3333C62.3903 74.597 61.7934 74 61.057 74C60.3206 74 59.7236 74.597 59.7236 75.3333C59.7236 76.0697 60.3206 76.6667 61.057 76.6667Z" fill="#333333"/>
<path d="M54.391 70.0001C55.1273 70.0001 55.7243 69.4031 55.7243 68.6667C55.7243 67.9303 55.1273 67.3334 54.391 67.3334C53.6546 67.3334 53.0576 67.9303 53.0576 68.6667C53.0576 69.4031 53.6546 70.0001 54.391 70.0001Z" fill="#333333"/>
</g>
<defs>
<clipPath id="clip0">
<rect width="84" height="84" fill="white"/>
</clipPath>
</defs>
</svg>
