<svg width="84" height="84" viewBox="0 0 84 84" fill="none" xmlns="http://www.w3.org/2000/svg">
<g clip-path="url(#clip0)">
<rect x="9.5" y="9.5" width="65" height="65" stroke="#4195DF" stroke-width="3"/>
<path d="M16.9574 53.5831V67.5604H7.71158V64.0869C7.71158 58.8741 10.5699 55.6146 16.9574 53.5831Z" fill="white"/>
<path d="M10.8179 81.5384C9.10483 81.5384 7.71158 80.1452 7.71158 78.4328V70.0214H16.9574V81.5384H10.8179Z" fill="white"/>
<path d="M64.6259 81.5384H58.6876V72.3612C58.6876 70.9276 57.5212 69.7612 56.0869 69.7612H27.9573C26.523 69.7612 25.3566 70.9276 25.3566 72.3612V81.5384H19.419V53.037L24.6254 52.0251V60.7582C24.6254 63.173 26.5897 65.1373 29.0045 65.1373H55.0398C57.4546 65.1373 59.4188 63.173 59.4188 60.7582V52.0251L64.6252 53.037L64.6259 81.5384Z" fill="white"/>
<path d="M56.2267 74.5497V72.3618C56.2267 72.0862 57.7776 72.2881 27.9573 72.2221C27.6996 72.2221 27.8727 72.5336 27.8182 74.5491H48.492C48.4919 74.5491 48.4921 74.5491 48.492 74.5491L53.4152 74.5497H56.2267Z" fill="white"/>
<path d="M73.227 81.5384H67.0868V70.0214H76.3326V78.4328C76.3333 80.1452 74.9394 81.5384 73.227 81.5384Z" fill="white"/>
<path d="M76.3333 64.0869V67.5604H67.0875V53.5831C73.4744 55.6146 76.3333 58.8741 76.3333 64.0869Z" fill="white"/>
<path d="M29.7338 7.66415C29.7511 7.69556 29.4024 9.99628 33.0913 9.99628C35.1619 9.99628 36.4482 9.18686 36.4482 7.88461V3.23318C37.1653 2.99606 37.9061 2.81085 38.6649 2.6814V11.6593C38.6649 13.2372 40.4517 13.7704 42.0224 13.7704C44.0931 13.7704 45.3793 12.9616 45.3793 11.6593V2.6814C46.1387 2.81085 46.8789 2.99606 47.5961 3.23318V7.88461C47.5961 9.18686 48.8823 9.99628 50.9529 9.99628C54.7001 9.99628 54.2893 7.70261 54.3105 7.66415C58.8843 12.8289 58.0916 18.5826 58.1819 19.1242H25.8623C25.9539 18.5762 25.1407 12.8501 29.7338 7.66415Z" fill="white"/>
<path d="M41.1265 2.46222C41.247 2.46094 42.7979 2.46094 42.9184 2.46222V11.2165C42.4486 11.3415 41.5956 11.3415 41.1265 11.2165V2.46222Z" fill="white"/>
<path d="M67.131 51.0228C67.0227 50.9908 68.0834 51.2042 51.0875 47.8973V44.1232C55.1993 41.3508 57.3354 37.4062 57.7628 33.0785C59.8239 32.9945 61.4741 31.2917 61.4741 29.2115C61.4734 27.0069 61.4747 26.2692 61.4728 26.1936C64.9604 24.8106 64.349 19.6862 60.6442 19.1607V17.8655C60.6442 8.01471 52.6295 0 42.778 0H41.2662C31.4154 0 23.4007 8.01471 23.4007 17.8661V19.1607C19.7029 19.6856 19.0793 24.8093 22.5714 26.1936C22.5701 26.2692 22.5708 27.0075 22.5708 29.2115C22.5708 31.2924 24.221 32.9945 26.2814 33.0791C26.7082 37.3973 28.8237 41.3367 32.9567 44.1232V47.8973C15.925 51.2112 17.0221 50.9908 16.9132 51.0228C9.06509 53.3331 5.25 57.6064 5.25 64.0869V78.4328C5.25 81.5025 7.74747 84 10.8179 84H73.227C76.2968 84 78.7942 81.5025 78.7942 78.4328V64.0869C78.7942 57.6064 74.9798 53.3331 67.131 51.0228ZM76.3333 64.0869V67.5604H67.0875V53.5831C73.4744 55.6146 76.3333 58.8741 76.3333 64.0869ZM50.0576 4.29254C50.6819 4.629 51.2804 5.00647 51.8495 5.42239V7.44177C51.3804 7.56674 50.5274 7.56674 50.0576 7.44177V4.29254ZM41.1265 2.46222C41.247 2.46094 42.7979 2.46094 42.9184 2.46222V11.2165C42.4486 11.3415 41.5956 11.3415 41.1265 11.2165V2.46222ZM32.1953 5.42239C32.7644 5.00647 33.3624 4.629 33.9866 4.29254V7.44177C33.5175 7.56674 32.6645 7.56674 32.1953 7.44177V5.42239ZM29.7338 7.66415C29.7511 7.69556 29.4024 9.99628 33.0913 9.99628C35.1619 9.99628 36.4482 9.18686 36.4482 7.88461V3.23318C37.1653 2.99606 37.9061 2.81085 38.6649 2.6814V11.6593C38.6649 13.2372 40.4517 13.7704 42.0224 13.7704C44.0931 13.7704 45.3793 12.9616 45.3793 11.6593V2.6814C46.1387 2.81085 46.8789 2.99606 47.5961 3.23318V7.88461C47.5961 9.18686 48.8823 9.99628 50.9529 9.99628C54.7001 9.99628 54.2893 7.70261 54.3105 7.66415C58.8843 12.8289 58.0916 18.5826 58.1819 19.1242H25.8623C25.9539 18.5762 25.1407 12.8501 29.7338 7.66415ZM28.6706 31.8249C28.6366 30.2375 26.6704 30.6758 26.441 30.6207C25.6642 30.6207 25.0323 29.9882 25.0323 29.2115V26.45H29.919C31.5468 26.45 31.5487 23.9884 29.919 23.9884H23.9179C22.3285 23.9884 22.3285 21.5858 23.9179 21.5858H60.127C61.717 21.5858 61.7151 23.9884 60.127 23.9884H34.8421C33.215 23.9884 33.2124 26.45 34.8421 26.45H59.0125V29.2115C59.0125 29.9882 58.3806 30.6207 57.6032 30.6207C57.3495 30.6816 55.4083 30.2426 55.3743 31.8249C55.2122 39.384 48.8342 44.3872 42.0224 44.4693C35.2305 44.3872 28.8327 39.4026 28.6706 31.8249ZM48.6259 45.4991V48.9118C48.6259 52.5532 45.6638 55.5159 42.0224 55.5159C38.381 55.5159 35.4183 52.5532 35.4183 48.9118V45.4991C39.4884 47.3378 44.2866 47.4596 48.6259 45.4991ZM27.087 51.5464L33.0759 50.3813C33.7802 54.6834 37.5242 57.9769 42.0224 57.9769C46.5207 57.9769 50.264 54.6834 50.9683 50.3813L56.9579 51.5464V60.7582C56.9579 61.8157 56.0978 62.6757 55.0398 62.6757H29.0045C27.9477 62.6757 27.087 61.8157 27.087 60.7582V51.5464ZM16.9574 53.5831V67.5604H7.71158V64.0869C7.71158 58.8741 10.5699 55.6146 16.9574 53.5831ZM10.8179 81.5384C9.10483 81.5384 7.71158 80.1452 7.71158 78.4328V70.0214H16.9574V81.5384H10.8179ZM56.2267 72.3618V74.5497H53.4152C51.788 74.5497 51.7854 77.0113 53.4152 77.0113H56.2267V81.5384H27.8182V77.0107H48.492C50.1192 77.0107 50.1217 74.5491 48.492 74.5491H27.8182C27.8727 72.5336 27.6996 72.2221 27.9573 72.2221C57.7776 72.2881 56.2267 72.0862 56.2267 72.3618ZM64.6259 81.5384H58.6876V72.3612C58.6876 70.9276 57.5212 69.7612 56.0869 69.7612H27.9573C26.523 69.7612 25.3566 70.9276 25.3566 72.3612V81.5384H19.419V53.037L24.6254 52.0251V60.7582C24.6254 63.173 26.5897 65.1373 29.0045 65.1373H55.0398C57.4546 65.1373 59.4188 63.173 59.4188 60.7582V52.0251L64.6252 53.037L64.6259 81.5384ZM73.227 81.5384H67.0868V70.0214H76.3326V78.4328C76.3333 80.1452 74.9394 81.5384 73.227 81.5384Z" fill="#333333"/>
<path d="M53.4152 77.0113C51.7854 77.0113 51.788 74.5497 53.4152 74.5497L48.492 74.5491C50.1217 74.5491 50.1192 77.0107 48.492 77.0107L53.4152 77.0113Z" fill="#333333"/>
<path d="M29.919 23.9884C31.5487 23.9884 31.5468 26.45 29.919 26.45H34.8421C33.2124 26.45 33.215 23.9884 34.8421 23.9884H29.919Z" fill="#333333"/>
</g>
<defs>
<clipPath id="clip0">
<rect width="84" height="84" fill="white"/>
</clipPath>
</defs>
</svg>
