<svg width="84" height="84" viewBox="0 0 84 84" fill="none" xmlns="http://www.w3.org/2000/svg">
<rect x="9.5" y="9.5" width="65" height="65" stroke="#4195DF" stroke-width="3"/>
<path d="M44.0444 11.8231C43.1427 11.8231 42.4131 12.543 42.4131 13.4308V29.5077C42.4131 30.3956 43.1427 31.1154 44.0444 31.1154C44.9461 31.1154 45.6757 30.3956 45.6757 29.5077V13.4308C45.6757 12.543 44.9461 11.8231 44.0444 11.8231Z" fill="#333333"/>
<path d="M22.5 60H44H75V47.5L74.5 34.5L70 26L64.5 19L55.5 14L50.5 12L48 10L42 8.5C40.6667 8.66667 37.7 9.1 36.5 9.5C35 10 34 11 33.5 11.5C33 12 31.5 13 31 13C30.6 13 27.1667 14 25.5 14.5C22.5 16.8333 16.3 21.6 15.5 22C14.5 22.5 11 29.5 10.5 30C10 30.5 9 36 9 37C9 38 8 51 8.5 51C8.9 51 7.66667 57 7 60H22.5Z" fill="white"/>
<path d="M5.5 66.5C5.9 66.5 13 66.8333 16.5 67C17 67.3333 18.4 68.1 20 68.5C21.6 68.9 36.3333 70.3333 43.5 71H52C52.8 71 60.3333 69.6667 64 69L69 66C70.1667 66.1667 72.8 66.5 74 66.5H80.5C81.1667 65.3333 82.4 62.9 82 62.5C81.5 62 84 60 80.5 60H75H44H22.5H7L1.5 61.5L5.5 66.5Z" fill="white"/>
<path d="M39.1508 11.8231C38.2491 11.8231 37.5195 12.543 37.5195 13.4308V29.5077C37.5195 30.3956 38.2491 31.1154 39.1508 31.1154C40.0526 31.1154 40.7822 30.3956 40.7822 29.5077V13.4308C40.7822 12.543 40.0526 11.8231 39.1508 11.8231Z" fill="#333333"/>
<path d="M79.1179 58.4462H76.6709V41.5654C76.6709 26.4643 65.8023 13.5618 50.7922 10.7704C50.4965 10.2777 50.1559 9.80743 49.7449 9.38019C48.2681 7.84565 46.2718 7 44.1262 7H39.07C36.924 7 34.928 7.84565 33.4513 9.38019C33.0402 9.80703 32.6997 10.2777 32.404 10.7704C17.3939 13.5622 6.52525 26.4647 6.52525 41.5654V58.4462H4.07828C1.8287 58.4462 0 60.2492 0 62.4654V64.0731C0 66.2893 1.8287 68.0923 4.07828 68.0923H15.2658C18.8233 72.6618 37.5353 72.9154 41.5977 72.9154C45.66 72.9154 64.3724 72.6618 67.9295 68.0923H79.1179C81.3675 68.0923 83.1962 66.2893 83.1962 64.0731V62.4654C83.1962 60.2492 81.3675 58.4462 79.1179 58.4462ZM9.78706 41.5654C9.78706 28.5696 18.7593 17.4006 31.371 14.2945C31.3604 14.5417 31.3216 14.784 31.3351 15.0344L32.6271 39.2387C32.6748 40.1249 33.4174 40.7937 34.3428 40.7591C35.2429 40.7129 35.9325 39.9561 35.8864 39.069L34.5944 14.8648C34.5276 13.6426 34.9623 12.4806 35.8179 11.592C36.6719 10.7041 37.8269 10.215 39.0695 10.215H44.1258C45.3684 10.215 46.5234 10.7041 47.3774 11.592C48.233 12.4806 48.6678 13.6426 48.6009 14.8648L47.3089 39.069C47.2628 39.9561 47.9525 40.7129 48.8525 40.7591C48.8827 40.7607 48.9117 40.7615 48.9402 40.7615C49.802 40.7615 50.5222 40.096 50.5683 39.2387L51.8603 15.0344C51.8737 14.7836 51.8354 14.5417 51.8244 14.2945C64.4361 17.4006 73.4083 28.5696 73.4083 41.5654V58.4462H9.78706V41.5654ZM79.9335 64.0731C79.9335 64.5168 79.5673 64.8769 79.1179 64.8769H66.883C66.0515 64.8769 65.3663 65.4899 65.2644 66.2821C64.2081 67.477 56.2045 69.7 41.5977 69.7C26.9909 69.7 18.9873 67.477 17.931 66.2821C17.829 65.4899 17.1439 64.8769 16.3123 64.8769H4.07747C3.62804 64.8769 3.26181 64.5168 3.26181 64.0731V62.4654C3.26181 62.0217 3.62804 61.6615 4.07747 61.6615H79.1179C79.5673 61.6615 79.9335 62.0217 79.9335 62.4654V64.0731Z" fill="#333333"/>
<path d="M63.6196 24.6846C62.7179 24.6846 61.9883 25.4045 61.9883 26.2923V47.1923C61.9883 48.0802 62.7179 48.8 63.6196 48.8C64.5213 48.8 65.2509 48.0802 65.2509 47.1923V26.2923C65.2509 25.4045 64.5213 24.6846 63.6196 24.6846Z" fill="#333333"/>
<path d="M19.5747 24.6846C18.673 24.6846 17.9434 25.4045 17.9434 26.2923V47.1923C17.9434 48.0802 18.673 48.8 19.5747 48.8C20.4764 48.8 21.206 48.0802 21.206 47.1923V26.2923C21.206 25.4045 20.4764 24.6846 19.5747 24.6846Z" fill="#333333"/>
</svg>
