<svg width="84" height="84" viewBox="0 0 84 84" fill="none" xmlns="http://www.w3.org/2000/svg">
<rect x="9.5" y="9.5" width="65" height="65" stroke="#4195DF" stroke-width="3"/>
<path d="M62.3428 58.5359C61.6551 58.5359 61.0977 59.0933 61.0977 59.7811C61.0977 60.4685 61.6551 61.0263 62.3428 61.0263C63.0303 61.0263 63.5877 60.4688 63.5877 59.7811C63.5877 59.0933 63.0303 58.5359 62.3428 58.5359Z" fill="#333333"/>
<path d="M31.0089 58.5359C30.3211 58.5359 29.7637 59.0933 29.7637 59.7811C29.7637 60.4685 30.3211 61.0263 31.0089 61.0263C31.6963 61.0263 32.2537 60.4688 32.2537 59.7811C32.2537 59.0933 31.6963 58.5359 31.0089 58.5359Z" fill="#333333"/>
<path d="M17.2227 58.5359C16.535 58.5359 15.9775 59.0933 15.9775 59.7811C15.9775 60.4685 16.535 61.0263 17.2227 61.0263C17.9102 61.0263 18.4676 60.4688 18.4676 59.7811C18.4676 59.0933 17.9102 58.5359 17.2227 58.5359Z" fill="#333333"/>
<path d="M14.6427 51.2271H55.1605H55.2486C53.0508 53.0529 51.5666 55.7078 51.2774 58.7067H37.5245C37.0091 55.6649 34.3743 53.3346 31.1877 53.3346C28.0011 53.3346 25.3666 55.6649 24.8515 58.7067H23.6783C23.1629 55.6649 20.5281 53.3346 17.3415 53.3346C14.1549 53.3346 11.5201 55.6649 11.0046 58.7067H6.37106C6.97329 54.5415 10.5168 51.2271 14.6427 51.2271Z" fill="white"/>
<path d="M5.02717 38.8285L9.73219 22.36H48.8938V48.7204L5.02717 48.68V38.8285Z" fill="white"/>
<path d="M78.8993 38.6534H69.2436L62.6805 35.3718V28.6267H75.3849L78.8993 38.6534Z" fill="white"/>
<path d="M56.4138 24.8667H74.067L74.5063 26.12H61.4272C60.7344 26.12 60.1738 26.6806 60.1738 27.3733V36.1467C60.1738 36.6217 60.4417 37.0547 60.8666 37.2678L68.3866 41.0278C68.5605 41.1146 68.7526 41.16 68.9472 41.16H78.9738V48.7204H56.4138V24.8667Z" fill="white"/>
<path d="M73.4065 58.7067C73.1173 55.7078 71.6337 53.0529 69.436 51.2271H73.9605V54.9467C73.9605 55.6395 74.5211 56.2 75.2138 56.2H78.9738V58.7067H73.4065Z" fill="white"/>
<path fill-rule="evenodd" clip-rule="evenodd" d="M81.4094 38.2385L76.1379 23.1985C75.9618 22.6965 75.488 22.36 74.9557 22.36H55.1605C54.4677 22.36 53.9072 22.9206 53.9072 23.6133V48.7204H51.4005V19.8533H61.4272C62.12 19.8533 62.6805 19.2928 62.6805 18.6C62.6805 17.9072 62.12 17.3467 61.4272 17.3467H50.1472C49.4544 17.3467 48.8938 17.9072 48.8938 18.6V19.8533H8.78718C8.22788 19.8533 7.73594 20.2243 7.58147 20.7626L2.56813 38.3093C2.53649 38.4209 2.52051 38.5371 2.52051 38.6534V49.9334C2.52051 50.6261 3.08106 51.1867 3.77384 51.1867H7.95183C5.42824 53.2657 3.77384 56.4529 3.77384 59.96C3.77384 60.6528 4.33439 61.2134 5.02717 61.2134H11.0692C11.7237 64.0785 14.2808 66.2267 17.3415 66.2267C20.4021 66.2267 22.9592 64.0785 23.6138 61.2134H24.9157C25.5703 64.0785 28.1274 66.2267 31.188 66.2267C34.2486 66.2267 36.8058 64.0785 37.4603 61.2134H56.0692C56.724 64.0785 59.2821 66.2267 62.3427 66.2267C65.4034 66.2267 67.9605 64.0785 68.6151 61.2134H80.2272C80.92 61.2134 81.4805 60.6528 81.4805 59.96V49.9738V49.9334V38.6534C81.4805 38.5127 81.4573 38.372 81.4094 38.2385ZM78.9738 51.2271H76.4672V53.6934H78.9738V51.2271ZM69.2436 38.6534H78.8993L75.3849 28.6267H62.6805V35.3718L69.2436 38.6534ZM74.067 24.8667H56.4138V48.7204H78.9738V41.16H68.9472C68.7526 41.16 68.5605 41.1146 68.3866 41.0278L60.8666 37.2678C60.4417 37.0547 60.1738 36.6217 60.1738 36.1467V27.3733C60.1738 26.6806 60.7344 26.12 61.4272 26.12H74.5063L74.067 24.8667ZM68.6796 58.7067H70.8801C70.3885 54.7825 67.2533 51.672 63.315 51.2271H61.3705C57.4322 51.672 54.2957 54.7825 53.8041 58.7067H56.0046C56.5201 55.6645 59.1561 53.3346 62.3427 53.3346C65.5293 53.3346 68.1642 55.6649 68.6796 58.7067ZM9.73219 22.36L5.02717 38.8285V48.68L48.8938 48.7204V22.36H9.73219ZM55.1605 51.2271H14.6427C10.5168 51.2271 6.97329 54.5415 6.37106 58.7067H11.0046C11.5201 55.6649 14.1549 53.3346 17.3415 53.3346C20.5281 53.3346 23.1629 55.6649 23.6783 58.7067H24.8515C25.3666 55.6649 28.0011 53.3346 31.1877 53.3346C34.3743 53.3346 37.0091 55.6649 37.5245 58.7067H51.2774C51.5666 55.7078 53.0508 53.0529 55.2486 51.2271H55.1605ZM13.4029 59.7814C13.4029 61.9525 15.1701 63.72 17.3415 63.72C19.5126 63.72 21.2801 61.9525 21.2801 59.7814C21.2801 57.6091 19.5126 55.8416 17.3415 55.8416C15.1704 55.8416 13.4029 57.6088 13.4029 59.7814ZM27.2494 59.7814C27.2494 61.9525 29.0166 63.72 31.188 63.72C33.3594 63.72 35.1266 61.9525 35.1266 59.7814C35.1266 57.6091 33.3591 55.8416 31.188 55.8416C29.0169 55.8416 27.2494 57.6088 27.2494 59.7814ZM58.4029 59.7814C58.4029 61.9525 60.1701 63.72 62.3427 63.72C64.5141 63.72 66.2813 61.9525 66.2813 59.7814C66.2813 57.6091 64.5141 55.8416 62.3427 55.8416C60.1704 55.8416 58.4029 57.6088 58.4029 59.7814ZM69.436 51.2271C71.6337 53.0529 73.1173 55.7078 73.4065 58.7067H78.9738V56.2H75.2138C74.5211 56.2 73.9605 55.6395 73.9605 54.9467V51.2271H69.436Z" fill="#333333"/>
<path d="M61.427 42.4134C62.1198 42.4134 62.6803 41.8528 62.6803 41.1601C62.6803 40.4673 62.1198 39.9067 61.427 39.9067H58.9203C58.2275 39.9067 57.667 40.4673 57.667 41.1601C57.667 41.8528 58.2275 42.4134 58.9203 42.4134H61.427Z" fill="#333333"/>
<path d="M41.3744 38.6534H45.1344C45.8272 38.6534 46.3878 38.0928 46.3878 37.4V26.12C46.3878 25.4273 45.8272 24.8667 45.1344 24.8667C44.4416 24.8667 43.8811 25.4273 43.8811 26.12V36.1467H41.3744C40.6816 36.1467 40.1211 36.7073 40.1211 37.4C40.1211 38.0928 40.6816 38.6534 41.3744 38.6534Z" fill="#333333"/>
<path d="M31.3471 38.6534H35.1071C35.7999 38.6534 36.3604 38.0928 36.3604 37.4V26.12C36.3604 25.4273 35.7999 24.8667 35.1071 24.8667C34.4143 24.8667 33.8538 25.4273 33.8538 26.12V36.1467H31.3471C30.6543 36.1467 30.0938 36.7073 30.0938 37.4C30.0938 38.0928 30.6543 38.6534 31.3471 38.6534Z" fill="#333333"/>
<path d="M21.3207 38.6534H25.0807C25.7735 38.6534 26.3341 38.0928 26.3341 37.4V26.12C26.3341 25.4273 25.7735 24.8667 25.0807 24.8667C24.3879 24.8667 23.8274 25.4273 23.8274 26.12V36.1467H21.3207C20.6279 36.1467 20.0674 36.7073 20.0674 37.4C20.0674 38.0928 20.6279 38.6534 21.3207 38.6534Z" fill="#333333"/>
<path d="M15.0544 24.8667C14.3616 24.8667 13.801 25.4273 13.801 26.12V36.1467H11.2943C10.6016 36.1467 10.041 36.7073 10.041 37.4C10.041 38.0928 10.6016 38.6534 11.2943 38.6534H15.0544C15.7471 38.6534 16.3077 38.0928 16.3077 37.4V26.12C16.3077 25.4273 15.7471 24.8667 15.0544 24.8667Z" fill="#333333"/>
</svg>
