<svg width="80" height="80" viewBox="0 0 80 80" fill="none" xmlns="http://www.w3.org/2000/svg">
<path fill-rule="evenodd" clip-rule="evenodd" d="M16 76C16 78.2091 14.2091 80 12 80H4C1.79086 80 0 78.2091 0 76V4C0 1.79086 1.79086 0 4 0H12C14.2091 0 16 1.79086 16 4V76ZM4 2.66667C3.26362 2.66667 2.66667 3.26362 2.66667 4V76C2.66667 76.7364 3.26362 77.3333 4 77.3333H12C12.7364 77.3333 13.3333 76.7364 13.3333 76V62.6667H9.33333C8.59695 62.6667 8 62.0697 8 61.3333C8 60.597 8.59695 60 9.33333 60H13.3333V57.3333H12C11.2636 57.3333 10.6667 56.7364 10.6667 56C10.6667 55.2636 11.2636 54.6667 12 54.6667H13.3333V52H9.33333C8.59695 52 8 51.403 8 50.6667C8 49.9303 8.59695 49.3333 9.33333 49.3333H13.3333V46.6667H12C11.2636 46.6667 10.6667 46.0697 10.6667 45.3333C10.6667 44.597 11.2636 44 12 44H13.3333V41.3333H9.33333C8.59695 41.3333 8 40.7364 8 40C8 39.2636 8.59695 38.6667 9.33333 38.6667H13.3333V36H12C11.2636 36 10.6667 35.403 10.6667 34.6667C10.6667 33.9303 11.2636 33.3333 12 33.3333H13.3333V30.6667H9.33333C8.59695 30.6667 8 30.0697 8 29.3333C8 28.597 8.59695 28 9.33333 28H13.3333V25.3333H12C11.2636 25.3333 10.6667 24.7364 10.6667 24C10.6667 23.2636 11.2636 22.6667 12 22.6667H13.3333V20H9.33333C8.59695 20 8 19.403 8 18.6667C8 17.9303 8.59695 17.3333 9.33333 17.3333H13.3333V14.6667H12C11.2636 14.6667 10.6667 14.0697 10.6667 13.3333C10.6667 12.597 11.2636 12 12 12H13.3333V9.33333H9.33333C8.59695 9.33333 8 8.73638 8 8C8 7.26362 8.59695 6.66667 9.33333 6.66667H13.3333V4C13.3333 3.26362 12.7364 2.66667 12 2.66667H4ZM12 70.6667C12 72.8758 10.2091 74.6667 8 74.6667C5.79086 74.6667 4 72.8758 4 70.6667C4 68.4576 5.79086 66.6667 8 66.6667C10.2091 66.6667 12 68.4576 12 70.6667ZM9.33333 70.6667C9.33333 69.9303 8.73638 69.3334 8 69.3334C7.26362 69.3334 6.66667 69.9303 6.66667 70.6667C6.66667 71.4031 7.26362 72 8 72C8.73638 72 9.33333 71.4031 9.33333 70.6667Z" fill="white"/>
<path fill-rule="evenodd" clip-rule="evenodd" d="M2.66667 4C2.66667 3.26362 3.26362 2.66667 4 2.66667H12C12.7364 2.66667 13.3333 3.26362 13.3333 4V6.66667H9.33333C8.59695 6.66667 8 7.26362 8 8C8 8.73638 8.59695 9.33333 9.33333 9.33333H13.3333V12H12C11.2636 12 10.6667 12.597 10.6667 13.3333C10.6667 14.0697 11.2636 14.6667 12 14.6667H13.3333V17.3333H9.33333C8.59695 17.3333 8 17.9303 8 18.6667C8 19.403 8.59695 20 9.33333 20H13.3333V22.6667H12C11.2636 22.6667 10.6667 23.2636 10.6667 24C10.6667 24.7364 11.2636 25.3333 12 25.3333H13.3333V28H9.33333C8.59695 28 8 28.597 8 29.3333C8 30.0697 8.59695 30.6667 9.33333 30.6667H13.3333V33.3333H12C11.2636 33.3333 10.6667 33.9303 10.6667 34.6667C10.6667 35.403 11.2636 36 12 36H13.3333V38.6667H9.33333C8.59695 38.6667 8 39.2636 8 40C8 40.7364 8.59695 41.3333 9.33333 41.3333H13.3333V44H12C11.2636 44 10.6667 44.597 10.6667 45.3333C10.6667 46.0697 11.2636 46.6667 12 46.6667H13.3333V49.3333H9.33333C8.59695 49.3333 8 49.9303 8 50.6667C8 51.403 8.59695 52 9.33333 52H13.3333V54.6667H12C11.2636 54.6667 10.6667 55.2636 10.6667 56C10.6667 56.7364 11.2636 57.3333 12 57.3333H13.3333V60H9.33333C8.59695 60 8 60.597 8 61.3333C8 62.0697 8.59695 62.6667 9.33333 62.6667H13.3333V76C13.3333 76.7364 12.7364 77.3333 12 77.3333H4C3.26362 77.3333 2.66667 76.7364 2.66667 76V4ZM12 70.6667C12 72.8758 10.2091 74.6667 8 74.6667C5.79086 74.6667 4 72.8758 4 70.6667C4 68.4576 5.79086 66.6667 8 66.6667C10.2091 66.6667 12 68.4576 12 70.6667Z" fill="white"/>
<path fill-rule="evenodd" clip-rule="evenodd" d="M16 76C16 78.2091 14.2091 80 12 80H4C1.79086 80 0 78.2091 0 76V4C0 1.79086 1.79086 0 4 0H12C14.2091 0 16 1.79086 16 4V76ZM4 2.66667C3.26362 2.66667 2.66667 3.26362 2.66667 4V76C2.66667 76.7364 3.26362 77.3333 4 77.3333H12C12.7364 77.3333 13.3333 76.7364 13.3333 76V62.6667H9.33333C8.59695 62.6667 8 62.0697 8 61.3333C8 60.597 8.59695 60 9.33333 60H13.3333V57.3333H12C11.2636 57.3333 10.6667 56.7364 10.6667 56C10.6667 55.2636 11.2636 54.6667 12 54.6667H13.3333V52H9.33333C8.59695 52 8 51.403 8 50.6667C8 49.9303 8.59695 49.3333 9.33333 49.3333H13.3333V46.6667H12C11.2636 46.6667 10.6667 46.0697 10.6667 45.3333C10.6667 44.597 11.2636 44 12 44H13.3333V41.3333H9.33333C8.59695 41.3333 8 40.7364 8 40C8 39.2636 8.59695 38.6667 9.33333 38.6667H13.3333V36H12C11.2636 36 10.6667 35.403 10.6667 34.6667C10.6667 33.9303 11.2636 33.3333 12 33.3333H13.3333V30.6667H9.33333C8.59695 30.6667 8 30.0697 8 29.3333C8 28.597 8.59695 28 9.33333 28H13.3333V25.3333H12C11.2636 25.3333 10.6667 24.7364 10.6667 24C10.6667 23.2636 11.2636 22.6667 12 22.6667H13.3333V20H9.33333C8.59695 20 8 19.403 8 18.6667C8 17.9303 8.59695 17.3333 9.33333 17.3333H13.3333V14.6667H12C11.2636 14.6667 10.6667 14.0697 10.6667 13.3333C10.6667 12.597 11.2636 12 12 12H13.3333V9.33333H9.33333C8.59695 9.33333 8 8.73638 8 8C8 7.26362 8.59695 6.66667 9.33333 6.66667H13.3333V4C13.3333 3.26362 12.7364 2.66667 12 2.66667H4ZM12 70.6667C12 72.8758 10.2091 74.6667 8 74.6667C5.79086 74.6667 4 72.8758 4 70.6667C4 68.4576 5.79086 66.6667 8 66.6667C10.2091 66.6667 12 68.4576 12 70.6667ZM9.33333 70.6667C9.33333 69.9303 8.73638 69.3334 8 69.3334C7.26362 69.3334 6.66667 69.9303 6.66667 70.6667C6.66667 71.4031 7.26362 72 8 72C8.73638 72 9.33333 71.4031 9.33333 70.6667Z" fill="#333333"/>
<path fill-rule="evenodd" clip-rule="evenodd" d="M27.0462 80H21.8662C21.0048 79.9988 20.197 79.5816 19.6974 78.8799C19.1978 78.1782 19.068 77.2783 19.3488 76.464L31.5995 40.924C30.2172 40.2615 29.3364 38.8661 29.3328 37.3333V20C29.3328 17.7909 31.1237 16 33.3328 16H35.9995V4C35.9995 1.79086 37.7904 0 39.9995 0H58.6662C60.8753 0 62.6662 1.79086 62.6662 4V16H65.3328C67.542 16 69.3328 17.7909 69.3328 20V37.3333C69.3293 38.8661 68.4484 40.2615 67.0662 40.924L79.3195 76.464C79.6005 77.2788 79.4703 78.1791 78.9701 78.881C78.4699 79.5828 77.6614 79.9997 76.7995 80H71.6168C70.4783 79.9998 69.4655 79.2767 69.0955 78.2L59.9808 51.76C59.5594 51.9141 59.1148 51.9953 58.6662 52H54.6662V77.3333C54.6662 78.8061 53.4723 80 51.9995 80H46.6662C45.1934 80 43.9995 78.8061 43.9995 77.3333V52H39.9995C39.5508 51.9953 39.1062 51.9141 38.6848 51.76L29.5675 78.2013C29.197 79.2775 28.1843 80 27.0462 80ZM46.6662 77.3333H51.9995V52H46.6662V77.3333ZM39.9995 49.3333H53.3328H58.6662C59.4025 49.3333 59.9995 48.7364 59.9995 48V41.3333H38.6662V48C38.6662 48.7364 39.2631 49.3333 39.9995 49.3333ZM62.1622 49.9053L71.6168 77.3333H76.7995L64.3822 41.3333H62.6662V48C62.6614 48.6674 62.488 49.3228 62.1622 49.9053ZM58.6662 2.66667H39.9995C39.2631 2.66667 38.6662 3.26362 38.6662 4V5.33333H41.3328C42.0692 5.33333 42.6662 5.93029 42.6662 6.66667C42.6662 7.40305 42.0692 8 41.3328 8H38.6662V26.6667H41.3328C42.0692 26.6667 42.6662 27.2636 42.6662 28C42.6662 28.7364 42.0692 29.3333 41.3328 29.3333H38.6662V30.6667C38.6662 31.403 39.2631 32 39.9995 32H58.6662C59.4025 32 59.9995 31.403 59.9995 30.6667V29.3333H57.3328C56.5965 29.3333 55.9995 28.7364 55.9995 28C55.9995 27.2636 56.5965 26.6667 57.3328 26.6667H59.9995V8H57.3328C56.5965 8 55.9995 7.40305 55.9995 6.66667C55.9995 5.93029 56.5965 5.33333 57.3328 5.33333H59.9995V4C59.9995 3.26362 59.4025 2.66667 58.6662 2.66667ZM33.3328 18.6667C32.5964 18.6667 31.9995 19.2636 31.9995 20V37.3333C31.9995 38.0697 32.5964 38.6667 33.3328 38.6667H65.3328C66.0692 38.6667 66.6662 38.0697 66.6662 37.3333V20C66.6662 19.2636 66.0692 18.6667 65.3328 18.6667H62.6662V30.6667C62.6662 32.8758 60.8753 34.6667 58.6662 34.6667H39.9995C37.7904 34.6667 35.9995 32.8758 35.9995 30.6667V18.6667H33.3328ZM35.9995 41.3333H34.2835L21.8662 77.3333H27.0488L36.5035 49.9053C36.1777 49.3228 36.0043 48.6674 35.9995 48V41.3333ZM57.333 17.3333C57.333 21.7516 53.7513 25.3333 49.333 25.3333C44.9166 25.3289 41.3374 21.7498 41.333 17.3333C41.333 12.915 44.9147 9.33331 49.333 9.33331C53.7513 9.33331 57.333 12.915 57.333 17.3333ZM54.6663 17.3333C54.6663 14.3878 52.2785 12 49.333 12C46.3875 12 43.9997 14.3878 43.9997 17.3333C43.9997 20.2788 46.3875 22.6666 49.333 22.6666C52.2785 22.6666 54.6663 20.2788 54.6663 17.3333Z" fill="white"/>
<path fill-rule="evenodd" clip-rule="evenodd" d="M39.9995 2.66667H58.6662C59.4025 2.66667 59.9995 3.26362 59.9995 4V5.33333H57.3328C56.5965 5.33333 55.9995 5.93029 55.9995 6.66667C55.9995 7.40305 56.5965 8 57.3328 8H59.9995V26.6667H57.3328C56.5965 26.6667 55.9995 27.2636 55.9995 28C55.9995 28.7364 56.5965 29.3333 57.3328 29.3333H59.9995V30.6667C59.9995 31.403 59.4025 32 58.6662 32H39.9995C39.2631 32 38.6662 31.403 38.6662 30.6667V29.3333H41.3328C42.0692 29.3333 42.6662 28.7364 42.6662 28C42.6662 27.2636 42.0692 26.6667 41.3328 26.6667H38.6662V8H41.3328C42.0692 8 42.6662 7.40305 42.6662 6.66667C42.6662 5.93029 42.0692 5.33333 41.3328 5.33333H38.6662V4C38.6662 3.26362 39.2631 2.66667 39.9995 2.66667ZM57.333 17.3333C57.333 21.7516 53.7513 25.3333 49.333 25.3333C44.9166 25.3289 41.3374 21.7498 41.333 17.3333C41.333 12.915 44.9147 9.33331 49.333 9.33331C53.7513 9.33331 57.333 12.915 57.333 17.3333Z" fill="white"/>
<path d="M31.9995 20C31.9995 19.2636 32.5964 18.6667 33.3328 18.6667H35.9995V30.6667C35.9995 32.8758 37.7904 34.6667 39.9995 34.6667H58.6662C60.8753 34.6667 62.6662 32.8758 62.6662 30.6667V18.6667H65.3328C66.0692 18.6667 66.6662 19.2636 66.6662 20V37.3333C66.6662 38.0697 66.0692 38.6667 65.3328 38.6667H33.3328C32.5964 38.6667 31.9995 38.0697 31.9995 37.3333V20Z" fill="white"/>
<path d="M53.3328 49.3333H39.9995C39.2631 49.3333 38.6662 48.7364 38.6662 48V41.3333H59.9995V48C59.9995 48.7364 59.4025 49.3333 58.6662 49.3333H53.3328Z" fill="white"/>
<path d="M51.9995 77.3333H46.6662V52H51.9995V77.3333Z" fill="white"/>
<path d="M34.2835 41.3333H35.9995V48C36.0043 48.6674 36.1777 49.3228 36.5035 49.9053L27.0488 77.3333H21.8662L34.2835 41.3333Z" fill="white"/>
<path d="M71.6168 77.3333L62.1622 49.9053C62.488 49.3228 62.6614 48.6674 62.6662 48V41.3333H64.3822L76.7995 77.3333H71.6168Z" fill="white"/>
<path fill-rule="evenodd" clip-rule="evenodd" d="M27.0462 80H21.8662C21.0048 79.9988 20.197 79.5816 19.6974 78.8799C19.1978 78.1782 19.068 77.2783 19.3488 76.464L31.5995 40.924C30.2172 40.2615 29.3364 38.8661 29.3328 37.3333V20C29.3328 17.7909 31.1237 16 33.3328 16H35.9995V4C35.9995 1.79086 37.7904 0 39.9995 0H58.6662C60.8753 0 62.6662 1.79086 62.6662 4V16H65.3328C67.542 16 69.3328 17.7909 69.3328 20V37.3333C69.3293 38.8661 68.4484 40.2615 67.0662 40.924L79.3195 76.464C79.6005 77.2788 79.4703 78.1791 78.9701 78.881C78.4699 79.5828 77.6614 79.9997 76.7995 80H71.6168C70.4783 79.9998 69.4655 79.2767 69.0955 78.2L59.9808 51.76C59.5594 51.9141 59.1148 51.9953 58.6662 52H54.6662V77.3333C54.6662 78.8061 53.4723 80 51.9995 80H46.6662C45.1934 80 43.9995 78.8061 43.9995 77.3333V52H39.9995C39.5508 51.9953 39.1062 51.9141 38.6848 51.76L29.5675 78.2013C29.197 79.2775 28.1843 80 27.0462 80ZM46.6662 77.3333H51.9995V52H46.6662V77.3333ZM39.9995 49.3333H53.3328H58.6662C59.4025 49.3333 59.9995 48.7364 59.9995 48V41.3333H38.6662V48C38.6662 48.7364 39.2631 49.3333 39.9995 49.3333ZM62.1622 49.9053L71.6168 77.3333H76.7995L64.3822 41.3333H62.6662V48C62.6614 48.6674 62.488 49.3228 62.1622 49.9053ZM58.6662 2.66667H39.9995C39.2631 2.66667 38.6662 3.26362 38.6662 4V5.33333H41.3328C42.0692 5.33333 42.6662 5.93029 42.6662 6.66667C42.6662 7.40305 42.0692 8 41.3328 8H38.6662V26.6667H41.3328C42.0692 26.6667 42.6662 27.2636 42.6662 28C42.6662 28.7364 42.0692 29.3333 41.3328 29.3333H38.6662V30.6667C38.6662 31.403 39.2631 32 39.9995 32H58.6662C59.4025 32 59.9995 31.403 59.9995 30.6667V29.3333H57.3328C56.5965 29.3333 55.9995 28.7364 55.9995 28C55.9995 27.2636 56.5965 26.6667 57.3328 26.6667H59.9995V8H57.3328C56.5965 8 55.9995 7.40305 55.9995 6.66667C55.9995 5.93029 56.5965 5.33333 57.3328 5.33333H59.9995V4C59.9995 3.26362 59.4025 2.66667 58.6662 2.66667ZM33.3328 18.6667C32.5964 18.6667 31.9995 19.2636 31.9995 20V37.3333C31.9995 38.0697 32.5964 38.6667 33.3328 38.6667H65.3328C66.0692 38.6667 66.6662 38.0697 66.6662 37.3333V20C66.6662 19.2636 66.0692 18.6667 65.3328 18.6667H62.6662V30.6667C62.6662 32.8758 60.8753 34.6667 58.6662 34.6667H39.9995C37.7904 34.6667 35.9995 32.8758 35.9995 30.6667V18.6667H33.3328ZM35.9995 41.3333H34.2835L21.8662 77.3333H27.0488L36.5035 49.9053C36.1777 49.3228 36.0043 48.6674 35.9995 48V41.3333ZM57.333 17.3333C57.333 21.7516 53.7513 25.3333 49.333 25.3333C44.9166 25.3289 41.3374 21.7498 41.333 17.3333C41.333 12.915 44.9147 9.33331 49.333 9.33331C53.7513 9.33331 57.333 12.915 57.333 17.3333ZM54.6663 17.3333C54.6663 14.3878 52.2785 12 49.333 12C46.3875 12 43.9997 14.3878 43.9997 17.3333C43.9997 20.2788 46.3875 22.6666 49.333 22.6666C52.2785 22.6666 54.6663 20.2788 54.6663 17.3333Z" fill="#333333"/>
</svg>
