<svg width="80" height="80" viewBox="0 0 80 80" fill="none" xmlns="http://www.w3.org/2000/svg">
<path d="M55.625 67.0312C54.7625 67.0312 54.0625 67.7312 54.0625 68.5938C54.0625 69.4562 54.7625 70.1562 55.625 70.1562C56.4875 70.1562 57.1875 69.4562 57.1875 68.5938C57.1875 67.7312 56.4875 67.0312 55.625 67.0312Z" fill="#333333"/>
<path d="M24.375 67.0312C23.5125 67.0312 22.8125 67.7312 22.8125 68.5938C22.8125 69.4562 23.5125 70.1562 24.375 70.1562C25.2375 70.1562 25.9375 69.4562 25.9375 68.5938C25.9375 67.7312 25.2375 67.0312 24.375 67.0312Z" fill="#333333"/>
<path d="M69.9445 58.9391C68.1856 56.2166 65.7686 54.0533 62.9372 52.6562C62.6984 52.4345 62.3914 52.2859 62.05 52.248C60.002 51.3786 57.8433 50.9375 55.625 50.9375H50.9375V46.8152C53.6502 44.4877 55.6003 41.4048 56.5459 37.9688H57.1875C60.6338 37.9688 63.4375 35.165 63.4375 31.7188C63.4375 30.0856 62.8072 28.5975 61.7778 27.4828C61.8761 27.3994 61.972 27.3125 62.0642 27.2205C62.9498 26.3348 63.4375 25.1578 63.4375 23.9062C63.4375 21.8495 62.1053 20.0991 60.2589 19.4694C59.7069 12.2844 54.6642 6.14437 47.7212 4.22C47.3098 2.07125 45.5366 0 43.125 0H36.875C34.4634 0 32.6902 2.07125 32.2787 4.22C25.3364 6.14422 20.2942 12.2831 19.7413 19.4672C19.0691 19.6952 18.4527 20.0753 17.9358 20.592C17.0502 21.4777 16.5625 22.6547 16.5625 23.9062C16.5625 25.338 17.2084 26.6211 18.2234 27.4816C17.1934 28.5963 16.5625 30.085 16.5625 31.7188C16.5625 35.165 19.3663 37.9688 22.8125 37.9688H23.4497C24.2391 40.837 25.7358 43.4703 27.8238 45.6455C28.2161 46.0545 28.632 46.4442 29.0625 46.8139V50.9375H24.375C22.1566 50.9375 19.9978 51.3786 17.95 52.2478C17.6087 52.2859 17.3016 52.4344 17.063 52.6561C14.2313 54.0533 11.8144 56.2166 10.0555 58.9389C8.17922 61.8431 7.1875 65.1817 7.1875 68.5938V78.4375C7.1875 79.3003 7.88703 80 8.75 80H71.25C72.113 80 72.8125 79.3003 72.8125 78.4375V68.5938C72.8125 65.1817 71.8208 61.8431 69.9445 58.9391ZM16.5625 76.875H10.3125V68.5938C10.3125 63.8411 12.7472 59.2858 16.5625 56.5816V76.875ZM57.1875 34.8438H57.1162C57.1628 34.3239 57.1875 33.8022 57.1875 33.2812V28.5938C58.9106 28.5938 60.3125 29.9956 60.3125 31.7188C60.3125 33.4419 58.9106 34.8438 57.1875 34.8438ZM32.1875 7.52172V14.5312C32.1875 15.3942 32.887 16.0938 33.75 16.0938C34.613 16.0938 35.3125 15.3942 35.3125 14.5312V5.47859C35.3125 5.47453 35.3125 5.47047 35.3125 5.46641V5.15625C35.3125 4.18813 36.1303 3.125 36.875 3.125H43.125C43.8697 3.125 44.6875 4.18813 44.6875 5.15625V5.46641C44.6875 5.47047 44.6875 5.47453 44.6875 5.47859V14.5312C44.6875 15.3942 45.387 16.0938 46.25 16.0938C47.113 16.0938 47.8125 15.3942 47.8125 14.5312V7.52172C52.8578 9.30719 56.5 13.8728 57.1002 19.2188H22.8998C23.5 13.8728 27.1422 9.30719 32.1875 7.52172ZM22.8125 34.8438C21.0894 34.8438 19.6875 33.4419 19.6875 31.7188C19.6875 29.9956 21.0894 28.5938 22.8125 28.5938V33.2812C22.8125 33.8022 22.8372 34.3241 22.8837 34.8438H22.8125ZM22.8125 25.4688H21.25C20.3884 25.4688 19.6875 24.7678 19.6875 23.9062C19.6875 23.4894 19.8502 23.097 20.1455 22.8019C20.4409 22.5064 20.8331 22.3438 21.25 22.3438H58.75C59.6116 22.3438 60.3125 23.0447 60.3125 23.9062C60.3125 24.3231 60.1498 24.7155 59.8545 25.0106C59.5592 25.3061 59.1669 25.4688 58.75 25.4688H57.1875H55.625H24.375H22.8125ZM26.2214 36.1223C26.2183 36.1053 26.2153 36.0884 26.2116 36.0717C26.0302 35.1547 25.9375 34.2161 25.9375 33.2812V28.5938H54.0625V33.2812C54.0625 34.2153 53.9698 35.1533 53.7884 36.0711C53.7853 36.0853 53.7827 36.0995 53.7801 36.1138C53.7796 36.1165 53.7791 36.1193 53.7786 36.122C53.0803 39.6075 51.1478 42.7275 48.3337 44.9097C45.8891 46.8088 43.0073 47.8125 40 47.8125C36.9927 47.8125 34.1109 46.8088 31.6639 44.908C31.1038 44.4745 30.5706 43.995 30.0788 43.482C28.1077 41.4286 26.7745 38.8847 26.2214 36.1223ZM38.4375 76.875H25.9375V73.2812C25.9375 72.4183 25.238 71.7188 24.375 71.7188C23.512 71.7188 22.8125 72.4183 22.8125 73.2812V76.875H19.6875V54.9178C20.7016 54.5355 21.7463 54.2806 22.8125 54.155V63.9062C22.8125 64.7692 23.512 65.4688 24.375 65.4688C25.238 65.4688 25.9375 64.7692 25.9375 63.9062V54.0625H29.9555L38.4375 62.9688V76.875ZM32.1875 51.875V48.9647C34.5986 50.2608 37.2542 50.9375 40 50.9375C42.7459 50.9375 45.4017 50.2606 47.8125 48.9648V51.875L40 60.0781L32.1875 51.875ZM60.3125 76.875H57.1875V73.2812C57.1875 72.4183 56.488 71.7188 55.625 71.7188C54.762 71.7188 54.0625 72.4183 54.0625 73.2812V76.875H41.5625V62.9688L50.0445 54.0625H54.0625V63.9062C54.0625 64.7692 54.762 65.4688 55.625 65.4688C56.488 65.4688 57.1875 64.7692 57.1875 63.9062V54.155C58.2537 54.2806 59.2983 54.5356 60.3125 54.918V76.875ZM69.6875 76.875H63.4375V56.5814C67.2528 59.2856 69.6875 63.8409 69.6875 68.5938V76.875Z" fill="white"/>
<path d="M32.1875 7.52172V14.5312C32.1875 15.3942 32.887 16.0938 33.75 16.0938C34.613 16.0938 35.3125 15.3942 35.3125 14.5312V5.47859V5.46641V5.15625C35.3125 4.18813 36.1303 3.125 36.875 3.125H43.125C43.8697 3.125 44.6875 4.18813 44.6875 5.15625V5.46641V5.47859V14.5312C44.6875 15.3942 45.387 16.0938 46.25 16.0938C47.113 16.0938 47.8125 15.3942 47.8125 14.5312V7.52172C52.8578 9.30719 56.5 13.8728 57.1002 19.2188H22.8998C23.5 13.8728 27.1422 9.30719 32.1875 7.52172Z" fill="white"/>
<path d="M22.8125 25.4688H21.25C20.3884 25.4688 19.6875 24.7678 19.6875 23.9062C19.6875 23.4894 19.8502 23.097 20.1455 22.8019C20.4409 22.5064 20.8331 22.3438 21.25 22.3438H58.75C59.6116 22.3438 60.3125 23.0447 60.3125 23.9062C60.3125 24.3231 60.1498 24.7155 59.8545 25.0106C59.5592 25.3061 59.1669 25.4688 58.75 25.4688H57.1875H55.625H24.375H22.8125Z" fill="white"/>
<path d="M26.2214 36.1223C26.2183 36.1053 26.2153 36.0884 26.2116 36.0717C26.0302 35.1547 25.9375 34.2161 25.9375 33.2812V28.5938H54.0625V33.2812C54.0625 34.2153 53.9698 35.1533 53.7884 36.0711C53.7853 36.0853 53.7827 36.0995 53.7801 36.1138L53.7786 36.122C53.0803 39.6075 51.1478 42.7275 48.3337 44.9097C45.8891 46.8088 43.0073 47.8125 40 47.8125C36.9927 47.8125 34.1109 46.8088 31.6639 44.908C31.1038 44.4745 30.5706 43.995 30.0788 43.482C28.1077 41.4286 26.7745 38.8847 26.2214 36.1223Z" fill="white"/>
<path d="M22.8125 34.8438C21.0894 34.8438 19.6875 33.4419 19.6875 31.7188C19.6875 29.9956 21.0894 28.5938 22.8125 28.5938V33.2812C22.8125 33.8022 22.8372 34.3241 22.8837 34.8438H22.8125Z" fill="white"/>
<path d="M57.1875 34.8438H57.1162C57.1628 34.3239 57.1875 33.8022 57.1875 33.2812V28.5938C58.9106 28.5938 60.3125 29.9956 60.3125 31.7188C60.3125 33.4419 58.9106 34.8438 57.1875 34.8438Z" fill="white"/>
<path d="M32.1875 51.875V48.9647C34.5986 50.2608 37.2542 50.9375 40 50.9375C42.7459 50.9375 45.4017 50.2606 47.8125 48.9648V51.875L40 60.0781L32.1875 51.875Z" fill="white"/>
<path d="M38.4375 76.875H25.9375V73.2812C25.9375 72.4183 25.238 71.7188 24.375 71.7188C23.512 71.7188 22.8125 72.4183 22.8125 73.2812V76.875H19.6875V54.9178C20.7016 54.5355 21.7463 54.2806 22.8125 54.155V63.9062C22.8125 64.7692 23.512 65.4688 24.375 65.4688C25.238 65.4688 25.9375 64.7692 25.9375 63.9062V54.0625H29.9555L38.4375 62.9688V76.875Z" fill="white"/>
<path d="M16.5625 76.875H10.3125V68.5938C10.3125 63.8411 12.7472 59.2858 16.5625 56.5816V76.875Z" fill="white"/>
<path d="M60.3125 76.875H57.1875V73.2812C57.1875 72.4183 56.488 71.7188 55.625 71.7188C54.762 71.7188 54.0625 72.4183 54.0625 73.2812V76.875H41.5625V62.9688L50.0445 54.0625H54.0625V63.9062C54.0625 64.7692 54.762 65.4688 55.625 65.4688C56.488 65.4688 57.1875 64.7692 57.1875 63.9062V54.155C58.2537 54.2806 59.2983 54.5356 60.3125 54.918V76.875Z" fill="white"/>
<path d="M69.6875 76.875H63.4375V56.5814C67.2528 59.2856 69.6875 63.8409 69.6875 68.5938V76.875Z" fill="white"/>
<path d="M69.9445 58.9391C68.1856 56.2166 65.7686 54.0533 62.9372 52.6562C62.6984 52.4345 62.3914 52.2859 62.05 52.248C60.002 51.3786 57.8433 50.9375 55.625 50.9375H50.9375V46.8152C53.6502 44.4877 55.6003 41.4048 56.5459 37.9688H57.1875C60.6338 37.9688 63.4375 35.165 63.4375 31.7188C63.4375 30.0856 62.8072 28.5975 61.7778 27.4828C61.8761 27.3994 61.972 27.3125 62.0642 27.2205C62.9498 26.3348 63.4375 25.1578 63.4375 23.9062C63.4375 21.8495 62.1053 20.0991 60.2589 19.4694C59.7069 12.2844 54.6642 6.14437 47.7212 4.22C47.3098 2.07125 45.5366 0 43.125 0H36.875C34.4634 0 32.6902 2.07125 32.2787 4.22C25.3364 6.14422 20.2942 12.2831 19.7413 19.4672C19.0691 19.6952 18.4527 20.0753 17.9358 20.592C17.0502 21.4777 16.5625 22.6547 16.5625 23.9062C16.5625 25.338 17.2084 26.6211 18.2234 27.4816C17.1934 28.5963 16.5625 30.085 16.5625 31.7188C16.5625 35.165 19.3663 37.9688 22.8125 37.9688H23.4497C24.2391 40.837 25.7358 43.4703 27.8238 45.6455C28.2161 46.0545 28.632 46.4442 29.0625 46.8139V50.9375H24.375C22.1566 50.9375 19.9978 51.3786 17.95 52.2478C17.6087 52.2859 17.3016 52.4344 17.063 52.6561C14.2313 54.0533 11.8144 56.2166 10.0555 58.9389C8.17922 61.8431 7.1875 65.1817 7.1875 68.5938V78.4375C7.1875 79.3003 7.88703 80 8.75 80H71.25C72.113 80 72.8125 79.3003 72.8125 78.4375V68.5938C72.8125 65.1817 71.8208 61.8431 69.9445 58.9391ZM16.5625 76.875H10.3125V68.5938C10.3125 63.8411 12.7472 59.2858 16.5625 56.5816V76.875ZM57.1875 34.8438H57.1162C57.1628 34.3239 57.1875 33.8022 57.1875 33.2812V28.5938C58.9106 28.5938 60.3125 29.9956 60.3125 31.7188C60.3125 33.4419 58.9106 34.8438 57.1875 34.8438ZM32.1875 7.52172V14.5312C32.1875 15.3942 32.887 16.0938 33.75 16.0938C34.613 16.0938 35.3125 15.3942 35.3125 14.5312V5.47859C35.3125 5.47453 35.3125 5.47047 35.3125 5.46641V5.15625C35.3125 4.18813 36.1303 3.125 36.875 3.125H43.125C43.8697 3.125 44.6875 4.18813 44.6875 5.15625V5.46641C44.6875 5.47047 44.6875 5.47453 44.6875 5.47859V14.5312C44.6875 15.3942 45.387 16.0938 46.25 16.0938C47.113 16.0938 47.8125 15.3942 47.8125 14.5312V7.52172C52.8578 9.30719 56.5 13.8728 57.1002 19.2188H22.8998C23.5 13.8728 27.1422 9.30719 32.1875 7.52172ZM22.8125 34.8438C21.0894 34.8438 19.6875 33.4419 19.6875 31.7188C19.6875 29.9956 21.0894 28.5938 22.8125 28.5938V33.2812C22.8125 33.8022 22.8372 34.3241 22.8837 34.8438H22.8125ZM22.8125 25.4688H21.25C20.3884 25.4688 19.6875 24.7678 19.6875 23.9062C19.6875 23.4894 19.8502 23.097 20.1455 22.8019C20.4409 22.5064 20.8331 22.3438 21.25 22.3438H58.75C59.6116 22.3438 60.3125 23.0447 60.3125 23.9062C60.3125 24.3231 60.1498 24.7155 59.8545 25.0106C59.5592 25.3061 59.1669 25.4688 58.75 25.4688H57.1875H55.625H24.375H22.8125ZM26.2214 36.1223C26.2183 36.1053 26.2153 36.0884 26.2116 36.0717C26.0302 35.1547 25.9375 34.2161 25.9375 33.2812V28.5938H54.0625V33.2812C54.0625 34.2153 53.9698 35.1533 53.7884 36.0711C53.7847 36.088 53.7817 36.105 53.7786 36.122C53.0803 39.6075 51.1478 42.7275 48.3337 44.9097C45.8891 46.8088 43.0073 47.8125 40 47.8125C36.9927 47.8125 34.1109 46.8088 31.6639 44.908C31.1038 44.4745 30.5706 43.995 30.0788 43.482C28.1077 41.4286 26.7745 38.8847 26.2214 36.1223ZM38.4375 76.875H25.9375V73.2812C25.9375 72.4183 25.238 71.7188 24.375 71.7188C23.512 71.7188 22.8125 72.4183 22.8125 73.2812V76.875H19.6875V54.9178C20.7016 54.5355 21.7463 54.2806 22.8125 54.155V63.9062C22.8125 64.7692 23.512 65.4688 24.375 65.4688C25.238 65.4688 25.9375 64.7692 25.9375 63.9062V54.0625H29.9555L38.4375 62.9688V76.875ZM32.1875 51.875V48.9647C34.5986 50.2608 37.2542 50.9375 40 50.9375C42.7459 50.9375 45.4017 50.2606 47.8125 48.9648V51.875L40 60.0781L32.1875 51.875ZM60.3125 76.875H57.1875V73.2812C57.1875 72.4183 56.488 71.7188 55.625 71.7188C54.762 71.7188 54.0625 72.4183 54.0625 73.2812V76.875H41.5625V62.9688L50.0445 54.0625H54.0625V63.9062C54.0625 64.7692 54.762 65.4688 55.625 65.4688C56.488 65.4688 57.1875 64.7692 57.1875 63.9062V54.155C58.2537 54.2806 59.2983 54.5356 60.3125 54.918V76.875ZM69.6875 76.875H63.4375V56.5814C67.2528 59.2856 69.6875 63.8409 69.6875 68.5938V76.875Z" fill="#333333"/>
</svg>
